<?xml version="1.0" encoding="UTF-8"?>
<svg version="1.1" xmlns="http://www.w3.org/2000/svg" width="1024" height="1024">
<path d="M0 0 C5.07468242 4.06504487 9.27626308 8.4124005 13.3125 13.5 C13.87517578 14.20141113 14.43785156 14.90282227 15.01757812 15.62548828 C19.7938853 21.63111174 24.26691865 27.81817673 28.66064453 34.10595703 C30.1265221 36.17892061 31.62055894 38.22933501 33.12109375 40.27734375 C40.45785485 50.2967715 47.39183333 60.48690586 54 71 C54.52094238 71.8240332 55.04188477 72.64806641 55.57861328 73.49707031 C62.66051635 84.71621821 69.48321449 96.03199614 75.76855469 107.71777344 C77.02209437 110.04094729 78.29613202 112.35215728 79.5703125 114.6640625 C92.4533414 138.33425991 102.89906712 163.31092359 111 189 C111.32049316 190.0096582 111.64098633 191.01931641 111.97119141 192.05957031 C116.61435204 206.85593388 120.16207514 221.75869009 123 237 C123.23178955 238.21018799 123.23178955 238.21018799 123.46826172 239.44482422 C135.86068064 305.14276615 123.58251102 379.55348713 87 436 C84.17564782 440.13652562 81.11852235 444.08200192 78 448 C76.99839844 449.28970703 76.99839844 449.28970703 75.9765625 450.60546875 C51.81223638 481.40782121 20.17120232 506.63631206 -16 522 C-16.66 522 -17.32 522 -18 522 C-18 522.99 -18 523.98 -18 525 C-18.99 524.67 -19.98 524.34 -21 524 C-23.8583873 525.08317835 -26.59546214 526.24053939 -29.375 527.5 C-46.43259618 534.90957582 -63.9185783 539.9570561 -81.95605469 544.3359375 C-82.61436279 544.49873703 -83.2726709 544.66153656 -83.95092773 544.82926941 C-85.75712529 545.27551885 -87.56551748 545.71285804 -89.37402344 546.1496582 C-90.2405957 546.430271 -91.10716797 546.71088379 -92 547 C-92.33 547.66 -92.66 548.32 -93 549 C-93.61875 548.814375 -94.2375 548.62875 -94.875 548.4375 C-97.04160178 547.76313824 -97.04160178 547.76313824 -99 549 C-99 549.99 -99 550.98 -99 552 C-100.32 552 -101.64 552 -103 552 C-110.36805372 562.67097435 -111.24912987 577.18110733 -110.95703125 589.84765625 C-110.93465637 591.52147271 -110.91319953 593.19530165 -110.89257812 594.86914062 C-110.85546419 597.47178596 -110.81224395 600.07377992 -110.75317383 602.67602539 C-110.69845391 605.21249663 -110.66954458 607.7482405 -110.64453125 610.28515625 C-110.60885796 611.44012352 -110.60885796 611.44012352 -110.57246399 612.61842346 C-110.54555484 618.2173305 -111.82808429 621.37245672 -115 626 C-118.87847692 629.87847692 -122.20389188 630.31322031 -127.5 630.5 C-132.77704907 630.32570111 -136.08907387 629.80800702 -140 626 C-143.96088739 621.21704164 -143.24158867 616.54953775 -142.875 610.6875 C-142.79584351 609.14437134 -142.79584351 609.14437134 -142.71508789 607.57006836 C-142.11644025 597.00849158 -141.09947005 586.47555949 -140.01708984 575.95385742 C-139.18927119 567.80350404 -139.18927119 567.80350404 -138.97265625 559.62109375 C-138.98167969 558.42613281 -138.99070312 557.23117187 -139 556 C-138.67 555.67 -138.34 555.34 -138 555 C-137.49232079 552.12148578 -137.03903605 549.25084386 -136.6171875 546.359375 C-136.33819783 544.50320901 -136.05888668 542.64709131 -135.77929688 540.79101562 C-135.63226318 539.80657471 -135.48522949 538.82213379 -135.33374023 537.80786133 C-122.47099644 452.06764526 -122.47099644 452.06764526 -115 440 C-112.67846745 438.51774699 -110.4318634 437.20470593 -108 435.9375 C-102.83689581 433.2946038 -102.83689581 433.2946038 -99 429 C-97.34608154 428.60828247 -95.67654729 428.27942455 -94 428 C-91.76591887 427.00916033 -91.76591887 427.00916033 -90 426 C-90.33 424.68 -90.66 423.36 -91 422 C-90.11626709 422.21350098 -89.23253418 422.42700195 -88.32202148 422.64697266 C-84.50049046 423.0530823 -83.14866267 422.50696355 -79.84765625 420.6484375 C-78.90599609 420.12636719 -77.96433594 419.60429688 -76.99414062 419.06640625 C-75.54297852 418.22916016 -75.54297852 418.22916016 -74.0625 417.375 C-73.09892578 416.84003906 -72.13535156 416.30507813 -71.14257812 415.75390625 C-66.9520352 413.39941118 -62.88089754 410.99883658 -58.99609375 408.1640625 C-56 406 -56 406 -53 405 C-51.5840924 404.22301055 -50.18894858 403.40742381 -48.8125 402.5625 C-48.09707031 402.13066406 -47.38164063 401.69882812 -46.64453125 401.25390625 C-46.10183594 400.84011719 -45.55914063 400.42632813 -45 400 C-45 399.34 -45 398.68 -45 398 C-44.06027344 397.74476563 -44.06027344 397.74476563 -43.1015625 397.484375 C-42.28429687 397.24203125 -41.46703125 396.9996875 -40.625 396.75 C-39.81289063 396.51796875 -39.00078125 396.2859375 -38.1640625 396.046875 C-35.86532676 395.15689122 -35.86532676 395.15689122 -34.6484375 393.015625 C-33.72804936 390.96086599 -33.72804936 390.96086599 -35 389 C-33.95972656 389.23332031 -32.91945313 389.46664063 -31.84765625 389.70703125 C-27.28649452 390.05432783 -26.06505205 389.34495278 -22.4375 386.6875 C-20.89255859 385.57955078 -20.89255859 385.57955078 -19.31640625 384.44921875 C-18.77773926 384.05009277 -18.23907227 383.6509668 -17.68408203 383.23974609 C-15.96230646 381.9722517 -14.2184705 380.74251199 -12.46484375 379.51953125 C-0.70954092 371.39801505 -0.70954092 371.39801505 10 362 C11.11524763 360.98913516 12.24130253 359.9901288 13.375 359 C13.96023438 358.484375 14.54546875 357.96875 15.1484375 357.4375 C17.01683845 355.98692711 18.85454263 354.98294082 21 354 C20.67 352.02 20.34 350.04 20 348 C20.99 348 21.98 348 23 348 C23 348.66 23 349.32 23 350 C23.66 350 24.32 350 25 350 C25 349.01 25 348.02 25 347 C26.46736295 345.81972981 27.94106276 344.64202201 29.4921875 343.57421875 C31.62565862 341.34678647 32.16860814 338.92601504 33 336 C32.12601563 336.72703125 32.12601563 336.72703125 31.234375 337.46875 C25.74139492 341.95986579 20.10429877 346.02571221 14.171875 349.9140625 C10.73316217 352.17548202 7.32840115 354.48027278 3.9375 356.8125 C2.34228516 357.90498047 2.34228516 357.90498047 0.71484375 359.01953125 C-1.92788031 360.83709809 -1.92788031 360.83709809 -3.68359375 362.69921875 C-5 364 -5 364 -8 365 C-9.42762064 365.76049837 -10.83882978 366.55211293 -12.23828125 367.36328125 C-13.05876953 367.83830078 -13.87925781 368.31332031 -14.72460938 368.80273438 C-16.00561523 369.55006836 -16.00561523 369.55006836 -17.3125 370.3125 C-18.57610352 371.04243164 -18.57610352 371.04243164 -19.86523438 371.78710938 C-23.42136191 373.85294421 -26.95071081 375.92174103 -30.35546875 378.23046875 C-32.55075799 379.69939937 -34.62720138 380.86638054 -37 382 C-39.10435765 383.14548254 -41.20849189 384.29137554 -43.3125 385.4375 C-53.07487242 390.67302417 -63.06499927 395.4163951 -73.09716797 400.10913086 C-75.20246473 401.09479007 -77.30627084 402.08359767 -79.41015625 403.07226562 C-83.38791276 404.93932309 -87.37150224 406.79347289 -91.35876465 408.64013672 C-92.95018894 409.37877726 -94.54012577 410.12063123 -96.12854004 410.86572266 C-98.36787645 411.91480653 -100.612716 412.95108506 -102.859375 413.984375 C-103.87505554 414.46472198 -103.87505554 414.46472198 -104.91125488 414.95477295 C-109.65750008 417.11416664 -109.65750008 417.11416664 -113 416 C-112.64373535 415.32662598 -112.2874707 414.65325195 -111.92041016 413.95947266 C-107.45927922 405.31051831 -103.8768834 396.44398009 -100.375 387.375 C-99.81043057 385.92427095 -99.24532858 384.47374905 -98.6796875 383.0234375 C-97.596938 380.24614151 -96.51643584 377.46798848 -95.4375 374.68920898 C-93.34542431 369.32009287 -91.20611499 363.97087745 -89.03857422 358.63183594 C-88.10171362 356.31992879 -87.17507022 354.0041458 -86.25 351.6875 C-85.93417969 350.91599609 -85.61835938 350.14449219 -85.29296875 349.34960938 C-83.7434668 345.44231549 -82.55524258 342.28506671 -83 338 C-82.34 338.33 -81.68 338.66 -81 339 C-80.62230469 338.01386719 -80.24460937 337.02773438 -79.85546875 336.01171875 C-76.06576433 326.16437189 -72.18115476 316.35415054 -68.25 306.5625 C-67.77844482 305.37164795 -67.30688965 304.1807959 -66.82104492 302.95385742 C-66.36963135 301.83599854 -65.91821777 300.71813965 -65.453125 299.56640625 C-65.05254883 298.56552979 -64.65197266 297.56465332 -64.23925781 296.53344727 C-62.01322271 291.98270529 -59.47369911 290.56801655 -54.8125 288.8125 C-53.91144531 288.46832031 -53.01039063 288.12414062 -52.08203125 287.76953125 C-51.39496094 287.51558594 -50.70789063 287.26164062 -50 287 C-50 286.34 -50 285.68 -50 285 C-49.01902344 284.92394531 -48.03804687 284.84789062 -47.02734375 284.76953125 C-42.32903594 284.0868913 -38.64328604 282.0225644 -34.5625 279.6875 C-33.78624268 279.25034668 -33.00998535 278.81319336 -32.21020508 278.36279297 C-23.9566336 273.5930948 -16.45318798 267.91837667 -9 262 C-8.06800781 261.28585937 -7.13601563 260.57171875 -6.17578125 259.8359375 C-3.80392426 258.00725611 -3.80392426 258.00725611 -2 255 C-2.33 254.34 -2.66 253.68 -3 253 C-2.29617188 252.9484375 -1.59234375 252.896875 -0.8671875 252.84375 C3.00062548 251.70553801 5.17102355 249.34448782 7.875 246.5 C8.39731201 245.96189697 8.91962402 245.42379395 9.45776367 244.86938477 C15.84465316 238.40172918 15.84465316 238.40172918 21 231 C20.67 230.01 20.34 229.02 20 228 C21 226 21 226 24 225 C22.10557021 225 20.61014999 226.09429063 19 227 C18.67 227.66 18.34 228.32 18 229 C17.44441406 229.26941406 16.88882812 229.53882813 16.31640625 229.81640625 C13.16613988 231.42607018 10.61656371 233.65947405 7.9375 235.9375 C7.40833984 236.38029297 6.87917969 236.82308594 6.33398438 237.27929688 C4.27014689 239.01685641 2.24692437 240.74236565 0.37890625 242.69140625 C-1.27835842 244.26416451 -2.946984 244.99162819 -5 246 C-6.52702035 247.03310541 -8.05272441 248.06832842 -9.56591797 249.12158203 C-25.02061445 259.82932991 -41.88971902 268.28448868 -59 276 C-60.20858957 273.07924186 -59.97059911 271.90979273 -58.96875 268.8359375 C-58.4840625 267.69382812 -57.999375 266.55171875 -57.5 265.375 C-56.61170335 263.27238294 -55.76513628 261.15049667 -55 259 C-55.33 258.34 -55.66 257.68 -56 257 C-55.01 257 -54.02 257 -53 257 C-52.86722656 256.31292969 -52.73445312 255.62585938 -52.59765625 254.91796875 C-52.42105469 254.01691406 -52.24445313 253.11585938 -52.0625 252.1875 C-51.88847656 251.29417969 -51.71445312 250.40085937 -51.53515625 249.48046875 C-50.84597432 246.28608533 -49.8136425 243.5974678 -48.4375 240.625 C-47.13379894 237.33740602 -46.68602756 235.4536968 -47 232 C-46.34 232 -45.68 232 -45 232 C-44.63597631 230.56496445 -44.28413409 229.12683494 -43.9375 227.6875 C-43.74027344 226.88699219 -43.54304687 226.08648437 -43.33984375 225.26171875 C-42.80114446 222.84042821 -42.80114446 222.84042821 -44 220 C-43.01 219.67 -42.02 219.34 -41 219 C-40.22984403 216.96069994 -40.22984403 216.96069994 -39.875 214.5625 C-39.28375029 211.3313722 -38.60368295 209.0298121 -36.9375 206.1875 C-35.83740501 204.04212688 -35.83740501 204.04212688 -36.0625 201.6875 C-36 199 -36 199 -34.4375 195.5625 C-32.83636786 191.59447686 -33.20258766 190.07566308 -34 186 C-33.1875 183.5625 -33.1875 183.5625 -32 181 C-31.67 179.783125 -31.34 178.56625 -31 177.3125 C-30 174 -30 174 -28 172 C-27.13971981 169.94187634 -27.13971981 169.94187634 -26.4375 167.625 C-26.18871094 166.85414063 -25.93992187 166.08328125 -25.68359375 165.2890625 C-25.06076391 163.20347231 -24.50733047 161.11629282 -24 159 C-25.95761564 159.10488949 -25.95761564 159.10488949 -28 160 C-29.24914923 162.23675518 -29.24914923 162.23675518 -30.05078125 165.10546875 C-30.41179932 166.21519043 -30.77281738 167.32491211 -31.14477539 168.46826172 C-31.72279907 170.30928467 -31.72279907 170.30928467 -32.3125 172.1875 C-33.1788654 174.84452364 -34.06326666 177.49529151 -34.953125 180.14453125 C-35.18935074 180.84936646 -35.42557648 181.55420166 -35.66896057 182.28039551 C-38.65959007 191.09674401 -42.11221468 199.73067896 -45.5625 208.375 C-46.21077678 210.00390544 -46.85905154 211.63281168 -47.50732422 213.26171875 C-49.05090887 217.1350424 -50.59964789 221.00628294 -52.15002441 224.87689209 C-54.25800372 230.14229924 -56.35234619 235.41300964 -58.4375 240.6875 C-58.80883057 241.61288574 -59.18016113 242.53827148 -59.56274414 243.49169922 C-59.89137451 244.32330566 -60.22000488 245.15491211 -60.55859375 246.01171875 C-60.84017334 246.71772217 -61.12175293 247.42372559 -61.41186523 248.15112305 C-62.15156807 250.15311244 -62.15156807 250.15311244 -62 253 C-62.64582031 253.59554687 -62.64582031 253.59554687 -63.3046875 254.203125 C-65.87570533 256.92816694 -66.83335954 260.29393099 -68.125 263.75 C-72.28434184 274.50599184 -76.87891022 285.0618633 -81.5 295.625 C-82.03781097 296.8561554 -82.03781097 296.8561554 -82.58648682 298.11218262 C-87.677137 309.76247015 -92.82476546 321.38706623 -98 333 C-98.66 333 -99.32 333 -100 333 C-101.32519531 331.49047852 -101.32519531 331.49047852 -102.828125 329.37890625 C-103.38113281 328.60740234 -103.93414062 327.83589844 -104.50390625 327.04101562 C-105.08011719 326.22310547 -105.65632812 325.40519531 -106.25 324.5625 C-106.81074219 323.77939453 -107.37148438 322.99628906 -107.94921875 322.18945312 C-110.24071271 318.97448181 -112.51460452 315.77068975 -114.61914062 312.42919922 C-115.13154297 311.61596191 -115.64394531 310.80272461 -116.171875 309.96484375 C-116.62143555 309.22741943 -117.07099609 308.48999512 -117.53417969 307.73022461 C-119.26818912 305.68343499 -120.38547154 305.36165076 -123 305 C-122.67 304.01 -122.34 303.02 -122 302 C-122 299.52993119 -122.74224358 298.32184452 -123.87109375 296.125 C-130.88493696 282.1405057 -136.16691605 267.86871584 -141 253 C-141.99 253 -142.98 253 -144 253 C-143.34 254.32 -142.68 255.64 -142 257 C-142.99 257 -143.98 257 -145 257 C-139.80215776 286.20151111 -131.5726831 314.61444028 -116.4609375 340.40234375 C-116.04062256 341.12131836 -115.62030762 341.84029297 -115.18725586 342.58105469 C-114.37669103 343.9472499 -113.55020162 345.30416926 -112.70532227 346.64941406 C-110.0926198 351.011352 -109.82325122 353.13070732 -111 358 C-111.93057937 360.51230216 -112.89888108 362.94994485 -113.95703125 365.40625 C-114.25633545 366.11601486 -114.55563965 366.82577972 -114.86401367 367.55705261 C-115.50738547 369.08151507 -116.15351811 370.60481479 -116.80215454 372.12704468 C-118.5183789 376.15786769 -120.21060022 380.19877088 -121.90625 384.23828125 C-122.25009232 385.0559346 -122.59393463 385.87358795 -122.94819641 386.71601868 C-126.02884715 394.04798285 -129.06476627 401.39711883 -132.03890991 408.77294922 C-132.79323599 410.63982369 -133.55533207 412.5035527 -134.31762695 414.3671875 C-136.80176699 420.54807363 -138.79224987 426.44463947 -140 433 C-140.66 433 -141.32 433 -142 433 C-142.33 433.99 -142.66 434.98 -143 436 C-147.44422585 431.85371108 -150.91297913 427.2516454 -154.4375 422.3125 C-155.01298584 421.51392578 -155.58847168 420.71535156 -156.18139648 419.89257812 C-159.67546687 414.99998533 -162.93651845 410.07070615 -165.75390625 404.75 C-167.24487899 402.65609471 -168.64456037 401.95611926 -171 401 C-170.67 400.01 -170.34 399.02 -170 398 C-171.0099273 395.80477419 -171.0099273 395.80477419 -172.578125 393.5078125 C-175.96633953 388.10894471 -178.90269099 382.57484592 -181.75 376.875 C-182.26296631 375.85398193 -182.77593262 374.83296387 -183.30444336 373.78100586 C-187.56805377 365.16102634 -191.30705803 356.36618102 -194.79003906 347.40380859 C-195.16999023 346.44684082 -195.54994141 345.48987305 -195.94140625 344.50390625 C-196.43169312 343.23268921 -196.43169312 343.23268921 -196.93188477 341.93579102 C-197.90504426 339.65506497 -197.90504426 339.65506497 -201 339 C-199.7628934 346.5499215 -198.0960768 353.84932594 -195.9375 361.1875 C-195.63948486 362.20835693 -195.34146973 363.22921387 -195.03442383 364.28100586 C-192.12490564 374.00341677 -188.58995026 383.45433663 -184.91796875 392.91015625 C-183.73472463 395.9583143 -182.68998956 398.95807078 -181.86328125 402.12109375 C-181.57839844 403.07113281 -181.29351562 404.02117187 -181 405 C-180.34 405.33 -179.68 405.66 -179 406 C-177.78906133 408.58879871 -176.66222454 411.17673968 -175.5625 413.8125 C-172.42931003 421.08176758 -168.97161043 428.10974041 -165.1875 435.0625 C-164.71965088 435.93688721 -164.25180176 436.81127441 -163.76977539 437.7121582 C-163.3236792 438.51999756 -162.87758301 439.32783691 -162.41796875 440.16015625 C-161.82665161 441.23728882 -161.82665161 441.23728882 -161.22338867 442.33618164 C-160.01431775 444.31577166 -160.01431775 444.31577166 -157 445 C-156.938125 445.825 -156.87625 446.65 -156.8125 447.5 C-155.91137578 451.38176588 -154.41647646 453.63127362 -152.05859375 456.77734375 C-149.49344182 462.16321626 -151.32749393 468.76026812 -152.390625 474.4140625 C-152.6894287 476.06639595 -152.98817307 477.71874013 -153.28686523 479.37109375 C-153.52311111 480.65862549 -153.52311111 480.65862549 -153.76412964 481.97216797 C-156.99191431 499.59573849 -159.75440602 517.22362971 -162 535 C-168.95645663 531.82261585 -174.82585624 528.12927619 -180.75 523.3125 C-185.41787386 519.52353212 -189.14019236 516.70006765 -195 515 C-195.75 512.9375 -195.75 512.9375 -196 511 C-196.66 510.67 -197.32 510.34 -198 510 C-198 509.34 -198 508.68 -198 508 C-198.56589844 507.7628125 -199.13179688 507.525625 -199.71484375 507.28125 C-202.50114746 505.71901476 -204.35332514 503.80262557 -206.5625 501.5 C-208.9961985 498.97190847 -211.07009401 496.95327066 -214 495 C-214 494.34 -214 493.68 -214 493 C-214.99 492.67 -215.98 492.34 -217 492 C-218.61328125 490.3984375 -218.61328125 490.3984375 -220.3125 488.375 C-220.92351562 487.65828125 -221.53453125 486.9415625 -222.1640625 486.203125 C-223.33167961 484.80198446 -224.49378816 483.39622111 -225.6484375 481.984375 C-226.41027344 481.06398438 -226.41027344 481.06398438 -227.1875 480.125 C-227.63480469 479.57070313 -228.08210938 479.01640625 -228.54296875 478.4453125 C-229.95538297 476.8630282 -229.95538297 476.8630282 -232.11328125 476.1171875 C-232.73589844 475.74851562 -233.35851562 475.37984375 -234 475 C-234.37621211 473.34248579 -234.70604297 471.67406038 -235 470 C-236.49355737 467.88718173 -236.49355737 467.88718173 -238.375 466 C-240.49988367 463.70599293 -242.13950936 461.76582358 -243.75 459.0625 C-244.89184215 456.67638011 -244.89184215 456.67638011 -248 456 C-248 455.01 -248 454.02 -248 453 C-249.16625008 450.73477196 -249.16625008 450.73477196 -250.75 448.4375 C-251.51570313 447.25994141 -251.51570313 447.25994141 -252.296875 446.05859375 C-254.07101919 443.914158 -255.44375456 443.02805523 -258 442 C-257.89945312 441.22785156 -257.79890625 440.45570313 -257.6953125 439.66015625 C-258.14047945 434.31244558 -260.48281598 430.18562283 -262.875 425.4375 C-263.79026107 423.58262218 -264.70436235 421.72717155 -265.6171875 419.87109375 C-266.02565918 419.05568115 -266.43413086 418.24026855 -266.85498047 417.40014648 C-268.01458343 414.96943077 -269.02684921 412.51048337 -270 410 C-270.66 410.66 -271.32 411.32 -272 412 C-272.79953138 408.71303767 -273.09658936 407.28976808 -272 404 C-272.2397871 400.89384662 -272.2397871 400.89384662 -273 398 C-273.66 397.67 -274.32 397.34 -275 397 C-275.52734375 395.12890625 -275.52734375 395.12890625 -275.9375 392.5625 C-276.09992188 391.57765625 -276.26234375 390.5928125 -276.4296875 389.578125 C-276.61789062 388.39734375 -276.80609375 387.2165625 -277 386 C-277.25102969 384.51535792 -277.50373362 383.03099829 -277.7578125 381.546875 C-286.83786066 328.19539739 -275.17983952 274.17835161 -243.74145508 229.79541016 C-242.5277405 228.12425176 -241.2939351 226.4677357 -240.05859375 224.8125 C-237.498985 221.31550133 -235.37317164 218.11951491 -234 214 C-232.66724789 213.33217215 -231.33380514 212.66572221 -230 212 C-228.50536808 210.51365624 -227.07240882 208.96407833 -225.6875 207.375 C-224.50607422 206.03115234 -224.50607422 206.03115234 -223.30078125 204.66015625 C-221.90218624 203.04310497 -220.50371499 201.42594662 -219.10546875 199.80859375 C-212.21400497 191.85929806 -204.75535336 184.85023796 -196.71484375 178.07421875 C-195.61849609 177.14029297 -195.61849609 177.14029297 -194.5 176.1875 C-193.8296875 175.62417969 -193.159375 175.06085938 -192.46875 174.48046875 C-190.76523616 173.11093455 -190.76523616 173.11093455 -191 171 C-190.17242187 170.88591797 -190.17242187 170.88591797 -189.328125 170.76953125 C-186.14200338 169.71640045 -184.2729719 167.89686226 -181.75 165.6875 C-176.14383572 160.85712114 -170.30609522 156.40617925 -164.34472656 152.02416992 C-163.69342773 151.54310791 -163.04212891 151.0620459 -162.37109375 150.56640625 C-161.79286865 150.14302979 -161.21464355 149.71965332 -160.61889648 149.28344727 C-157.71667883 146.98259397 -156.19426217 145.58278652 -155 142 C-154.34 142.66 -153.68 143.32 -153 144 C-152.18660156 143.35675781 -151.37320313 142.71351563 -150.53515625 142.05078125 C-142.99987584 136.10480861 -135.41397364 130.23030981 -127.77563477 124.41723633 C-126.75554321 123.64029419 -126.75554321 123.64029419 -125.71484375 122.84765625 C-125.07401855 122.36055176 -124.43319336 121.87344727 -123.77294922 121.37158203 C-122.19913705 120.15405563 -120.66108572 118.89061388 -119.12890625 117.62109375 C-117 116 -117 116 -115 116 C-115 115.34 -115 114.68 -115 114 C-113.42283761 112.74966403 -111.78498678 111.57557958 -110.125 110.4375 C-105.27186557 106.99934594 -100.8940394 103.3099234 -96.52734375 99.28125 C-93.94009238 96.94592574 -91.27633145 94.74896278 -88.5625 92.5625 C-83.74128546 88.66058484 -79.14598414 84.56159557 -74.58203125 80.36328125 C-71.65081613 77.68039903 -68.66541439 75.067423 -65.65625 72.47265625 C-63.9638578 71.01146552 -63.9638578 71.01146552 -62.40625 69.30859375 C-61 68 -61 68 -59 68 C-58.6596875 67.13375 -58.6596875 67.13375 -58.3125 66.25 C-56.66511725 63.42591529 -54.56545162 62.0023037 -52 60 C-51.443125 59.2575 -50.88625 58.515 -50.3125 57.75 C-49.879375 57.1725 -49.44625 56.595 -49 56 C-48.34 56 -47.68 56 -47 56 C-46.67 55.01 -46.34 54.02 -46 53 C-44.38161281 51.28641357 -42.70328319 49.6292274 -41 48 C-36.75830733 43.86939928 -32.72904302 39.63286556 -28.8671875 35.14453125 C-26.86846355 32.84892571 -24.81054771 30.615204 -22.75 28.375 C-17.62102816 22.69461993 -12.94124868 16.69266331 -8.26611328 10.63916016 C-6.45568416 8.29530726 -4.63331282 5.96079018 -2.8125 3.625 C-1.87478219 2.41683568 -0.93724133 1.20853398 0 0 Z M-18 125 C-17 127 -17 127 -17 127 Z M-19 130 C-19.53229326 131.26607607 -20.05044544 132.53810412 -20.5625 133.8125 C-20.85253906 134.52019531 -21.14257812 135.22789062 -21.44140625 135.95703125 C-22.25063024 138.1735067 -22.25063024 138.1735067 -21 141 C-19.06604999 138.09907498 -18.69868059 137.10325263 -18.375 133.8125 C-18.25125 132.554375 -18.1275 131.29625 -18 130 C-18.33 130 -18.66 130 -19 130 Z M-23 141 C-23.69821417 143.10063576 -24.38324472 145.20565737 -25.0625 147.3125 C-25.44535156 148.48425781 -25.82820312 149.65601563 -26.22265625 150.86328125 C-27.29709844 154.0006097 -27.29709844 154.0006097 -26 157 C-25.34 155.68 -24.68 154.36 -24 153 C-23.34 153.33 -22.68 153.66 -22 154 C-21.7763663 152.58566794 -21.57173524 151.16832382 -21.375 149.75 C-21.25898437 148.96109375 -21.14296875 148.1721875 -21.0234375 147.359375 C-20.99680605 144.67847541 -21.63407916 143.27305911 -23 141 Z M-21 141 C-20 144 -20 144 -20 144 Z M-24 155 C-24.33 155.99 -24.66 156.98 -25 158 C-24.34 158 -23.68 158 -23 158 C-23.33 157.01 -23.66 156.02 -24 155 Z M-29 176 C-28 178 -28 178 -28 178 Z M-30 179 C-30.33 180.98 -30.66 182.96 -31 185 C-30.34 184.01 -29.68 183.02 -29 182 C-29.33 181.01 -29.66 180.02 -30 179 Z M-32 186 C-31 189 -31 189 -31 189 Z M31 213 C30.67 214.32 30.34 215.64 30 217 C30.99 215.68 31.98 214.36 33 213 C32.34 213 31.68 213 31 213 Z M28 217 C27.67 217.99 27.34 218.98 27 220 C26.01 220.33 25.02 220.66 24 221 C25.32 221.33 26.64 221.66 28 222 C28.66 220.35 29.32 218.7 30 217 C29.34 217 28.68 217 28 217 Z M-146 231 C-146 232.98 -146 234.96 -146 237 C-145.67 237 -145.34 237 -145 237 C-145 235.02 -145 233.04 -145 231 C-145.33 231 -145.66 231 -146 231 Z M-145 237 C-144 241 -144 241 -144 241 Z M-144 241 C-143 245 -143 245 -143 245 Z M-143 245 C-142 249 -142 249 -142 249 Z M-146 246 C-146 248.64 -146 251.28 -146 254 C-145.34 253.34 -144.68 252.68 -144 252 C-144.32198966 248.90073181 -144.32198966 248.90073181 -145 246 C-145.33 246 -145.66 246 -146 246 Z M-206 317 C-205 320 -205 320 -205 320 Z M-205 320 C-204.85833643 321.91697937 -204.71150416 323.83357723 -204.5625 325.75 C-204.48128906 326.81734375 -204.40007812 327.8846875 -204.31640625 328.984375 C-204.05909227 331.43679962 -203.68187782 333.63921291 -203 336 C-200.87236076 335.20276983 -200.87236076 335.20276983 -200.25390625 333.296875 C-199.90973769 330.18347323 -200.79807237 328.15036125 -201.9375 325.25 C-202.31777344 324.26515625 -202.69804687 323.2803125 -203.08984375 322.265625 C-203.39019531 321.51796875 -203.69054687 320.7703125 -204 320 C-204.33 320 -204.66 320 -205 320 Z M40 329 C39.67 329.66 39.34 330.32 39 331 C39.66 331 40.32 331 41 331 C40.67 330.34 40.34 329.68 40 329 Z M36 333 C35.67 334.32 35.34 335.64 35 337 C35.66 336.67 36.32 336.34 37 336 C36.67 335.01 36.34 334.02 36 333 Z M-200 334 C-199 336 -199 336 -199 336 Z M-257 438 C-256.67 438.99 -256.34 439.98 -256 441 C-256 440.01 -256 439.02 -256 438 C-256.33 438 -256.66 438 -257 438 Z " fill="#FCFCFC" transform="translate(579,179)"/>
<path d="M0 0 C3.22427067 4.836406 3.91087901 10.44236382 5.1875 16.0625 C5.47302734 17.27228516 5.75855469 18.48207031 6.05273438 19.72851562 C6.31763672 20.88158203 6.58253906 22.03464844 6.85546875 23.22265625 C7.09934326 24.28234619 7.34321777 25.34203613 7.59448242 26.43383789 C8 29 8 29 7 31 C5.68 30.67 4.36 30.34 3 30 C3.66 31.32 4.32 32.64 5 34 C4.01 34 3.02 34 2 34 C2 35.98 2 37.96 2 40 C1.67 40 1.34 40 1 40 C-0.40016098 31.04897087 -1.19413632 22.31189015 -1.1875 13.25 C-1.18814453 12.3930957 -1.18878906 11.53619141 -1.18945312 10.65332031 C-1.15664685 6.91191383 -1.01990752 3.61978149 0 0 Z M1 8 C1 9.98 1 11.96 1 14 C1.33 14 1.66 14 2 14 C2 12.02 2 10.04 2 8 C1.67 8 1.34 8 1 8 Z M2 14 C3 18 3 18 3 18 Z M3 18 C4 22 4 22 4 22 Z M4 22 C5 26 5 26 5 26 Z M1 23 C1 25.64 1 28.28 1 31 C1.66 30.34 2.32 29.68 3 29 C2.67801034 25.90073181 2.67801034 25.90073181 2 23 C1.67 23 1.34 23 1 23 Z " fill="#F5F6F5" transform="translate(432,402)"/>
<path d="M0 0 C0.33 0 0.66 0 1 0 C1.27528246 7.14816778 0.32963505 14.09119832 -0.5958252 21.16372681 C-3.48466783 43.39878351 -5.46063392 65.55689167 -5 88 C-6.96947944 86.3809445 -7.92224421 85.5341067 -8.29638672 82.96411133 C-8.25787598 82.1780249 -8.21936523 81.39193848 -8.1796875 80.58203125 C-8.14029053 79.67267822 -8.10089355 78.7633252 -8.06030273 77.82641602 C-7.96857788 76.33452759 -7.96857788 76.33452759 -7.875 74.8125 C-7.79584351 73.25583618 -7.79584351 73.25583618 -7.71508789 71.66772461 C-7.11947899 61.07301184 -6.10279751 50.5087105 -5.01708984 39.9543457 C-4.18929635 31.80374566 -4.18929635 31.80374566 -3.97265625 23.62109375 C-3.98167969 22.42613281 -3.99070312 21.23117187 -4 20 C-3.67 19.67 -3.34 19.34 -3 19 C-2.70490939 17.59049312 -2.46294037 16.16973895 -2.24609375 14.74609375 C-2.04790039 13.46508789 -2.04790039 13.46508789 -1.84570312 12.15820312 C-1.71099609 11.26037109 -1.57628906 10.36253906 -1.4375 9.4375 C-1.29892578 8.53580078 -1.16035156 7.63410156 -1.01757812 6.70507812 C-0.67471949 4.47058567 -0.33569977 2.2355773 0 0 Z " fill="#C1C1C2" transform="translate(444,715)"/>
<path d="M0 0 C1.00517583 3.12751867 0.96874419 5.04066492 0.05957031 8.18261719 C-0.17107117 8.99736511 -0.40171265 9.81211304 -0.63934326 10.65155029 C-0.89757874 11.52450745 -1.15581421 12.3974646 -1.421875 13.296875 C-1.68252747 14.20447571 -1.94317993 15.11207642 -2.21173096 16.04718018 C-2.7654349 17.96833944 -3.32388861 19.88813516 -3.88671875 21.80664062 C-4.74191228 24.72242492 -5.58319708 27.64192749 -6.421875 30.5625 C-6.96272527 32.43252798 -7.50436696 34.30232728 -8.046875 36.171875 C-8.29701355 37.03673523 -8.5471521 37.90159546 -8.80487061 38.79266357 C-10.32386271 43.95914852 -12.04962078 48.97998163 -14 54 C-16 51 -16 51 -17 48 C-15.515 47.505 -15.515 47.505 -14 47 C-13.22984403 44.96069994 -13.22984403 44.96069994 -12.875 42.5625 C-12.28375029 39.3313722 -11.60368295 37.0298121 -9.9375 34.1875 C-8.83740501 32.04212688 -8.83740501 32.04212688 -9.0625 29.6875 C-9 27 -9 27 -7.4375 23.5625 C-5.83636786 19.59447686 -6.20258766 18.07566308 -7 14 C-6.1875 11.5625 -6.1875 11.5625 -5 9 C-4.690625 7.783125 -4.38125 6.56625 -4.0625 5.3125 C-3 2 -3 2 0 0 Z M-2 4 C-1 6 -1 6 -1 6 Z M-3 7 C-3.33 8.98 -3.66 10.96 -4 13 C-3.34 12.01 -2.68 11.02 -2 10 C-2.33 9.01 -2.66 8.02 -3 7 Z M-5 14 C-4 17 -4 17 -4 17 Z " fill="#CACACB" transform="translate(552,351)"/>
<path d="M0 0 C0 3.36403475 -0.61880053 4.40092917 -2.375 7.1875 C-2.81585937 7.90292969 -3.25671875 8.61835938 -3.7109375 9.35546875 C-4.13632812 9.89816406 -4.56171875 10.44085938 -5 11 C-5.66 11 -6.32 11 -7 11 C-7.26039063 11.57878906 -7.52078125 12.15757812 -7.7890625 12.75390625 C-9.08192325 15.15195442 -10.54725075 16.92218697 -12.375 18.9375 C-14.45328427 21.24910517 -16.41188058 23.53433156 -18.3125 26 C-18.869375 26.66 -19.42625 27.32 -20 28 C-20.66 28 -21.32 28 -22 28 C-22 27.01 -22 26.02 -22 25 C-20.49784241 23.79174281 -18.99354603 22.5858092 -17.46875 21.40625 C-15.25647062 19.28811017 -14.67960209 16.92228899 -14 14 C-14.66 13.67 -15.32 13.34 -16 13 C-13.89746067 11.20639298 -11.79305667 9.41505881 -9.6875 7.625 C-8.79514648 6.86316406 -8.79514648 6.86316406 -7.88476562 6.0859375 C-7.01948242 5.35117187 -7.01948242 5.35117187 -6.13671875 4.6015625 C-5.60780029 4.15119629 -5.07888184 3.70083008 -4.53393555 3.23681641 C-3.08837533 2.07125727 -1.54505544 1.03003696 0 0 Z M-7 7 C-7.33 7.66 -7.66 8.32 -8 9 C-7.34 9 -6.68 9 -6 9 C-6.33 8.34 -6.66 7.68 -7 7 Z M-11 11 C-11.33 12.32 -11.66 13.64 -12 15 C-11.34 14.67 -10.68 14.34 -10 14 C-10.33 13.01 -10.66 12.02 -11 11 Z " fill="#D2D3D3" transform="translate(626,501)"/>
<path d="M0 0 C0.33 0 0.66 0 1 0 C0.22095672 17.85649203 0.22095672 17.85649203 -2 26 C-2.33 26 -2.66 26 -3 26 C-3 23.03 -3 20.06 -3 17 C-3.33773437 18.14339844 -3.67546875 19.28679687 -4.0234375 20.46484375 C-4.47355307 21.95585157 -4.92409603 23.44673041 -5.375 24.9375 C-5.59671875 25.69224609 -5.8184375 26.44699219 -6.046875 27.22460938 C-6.63962452 29.16847912 -7.31451172 31.08686452 -8 33 C-8.99 33.495 -8.99 33.495 -10 34 C-7.43930541 22.44029299 -3.65867351 11.24775622 0 0 Z M-2 10 C-1 12 -1 12 -1 12 Z " fill="#CCCCCC" transform="translate(563,294)"/>
<path d="M0 0 C0.66 0.33 1.32 0.66 2 1 C-4.85615211 5.47272645 -11.73213351 9.90917001 -18.75 14.125 C-19.71421875 14.70507812 -20.6784375 15.28515625 -21.671875 15.8828125 C-22.44015625 16.25148438 -23.2084375 16.62015625 -24 17 C-24.66 16.67 -25.32 16.34 -26 16 C-25.01 15.38125 -24.02 14.7625 -23 14.125 C-22.01 13.42375 -21.02 12.7225 -20 12 C-20 11.34 -20 10.68 -20 10 C-19.37351562 9.82984375 -18.74703125 9.6596875 -18.1015625 9.484375 C-17.28429687 9.24203125 -16.46703125 8.9996875 -15.625 8.75 C-14.81289063 8.51796875 -14.00078125 8.2859375 -13.1640625 8.046875 C-10.86532676 7.15689122 -10.86532676 7.15689122 -9.6484375 5.015625 C-8.72804936 2.96086599 -8.72804936 2.96086599 -10 1 C-8.906875 1.20625 -7.81375 1.4125 -6.6875 1.625 C-2.9161599 2.40346525 -2.9161599 2.40346525 0 0 Z " fill="#D1D1D2" transform="translate(554,567)"/>
<path d="M0 0 C3.22427067 4.836406 3.91087901 10.44236382 5.1875 16.0625 C5.47302734 17.27228516 5.75855469 18.48207031 6.05273438 19.72851562 C6.31763672 20.88158203 6.58253906 22.03464844 6.85546875 23.22265625 C7.09934326 24.28234619 7.34321777 25.34203613 7.59448242 26.43383789 C8 29 8 29 7 31 C4.26424515 23.44410565 2.6055896 15.87503468 1 8 C0.67 12.62 0.34 17.24 0 22 C-0.33 22 -0.66 22 -1 22 C-1.02700675 19.08327116 -1.04684237 16.16679323 -1.0625 13.25 C-1.07087891 12.425 -1.07925781 11.6 -1.08789062 10.75 C-1.09111328 9.95078125 -1.09433594 9.1515625 -1.09765625 8.328125 C-1.10289307 7.5949707 -1.10812988 6.86181641 -1.11352539 6.10644531 C-0.9975109 3.9538151 -0.59073271 2.0685865 0 0 Z " fill="#C3C3C4" transform="translate(432,402)"/>
<path d="M0 0 C1.31534494 3.65857532 0.65468309 6.08026481 -0.4375 9.75 C-0.72496094 10.73484375 -1.01242187 11.7196875 -1.30859375 12.734375 C-1.65083984 13.85585938 -1.65083984 13.85585938 -2 15 C-2.66 15 -3.32 15 -4 15 C-4.66 15.66 -5.32 16.32 -6 17 C-7.24752897 13.25741309 -6.5279335 12.53837233 -5 9 C-4.690625 7.783125 -4.38125 6.56625 -4.0625 5.3125 C-3 2 -3 2 0 0 Z M-2 4 C-1 6 -1 6 -1 6 Z M-3 7 C-3.33 8.98 -3.66 10.96 -4 13 C-3.34 12.01 -2.68 11.02 -2 10 C-2.33 9.01 -2.66 8.02 -3 7 Z " fill="#E0E0E1" transform="translate(552,351)"/>
<path d="M0 0 C0 3.71944512 -1.15507705 5.74362144 -2.8125 9.0625 C-3.33457031 10.12597656 -3.85664062 11.18945312 -4.39453125 12.28515625 C-6 15 -6 15 -9 17 C-8.690625 16.113125 -8.38125 15.22625 -8.0625 14.3125 C-6.92979489 11.17817573 -6.92979489 11.17817573 -6.75 8.5 C-5.5840466 4.61348866 -2.96756689 2.71500801 0 0 Z " fill="#CECECF" transform="translate(617,383)"/>
<path d="M0 0 C0.33 0.99 0.66 1.98 1 3 C0.67 3.66 0.34 4.32 0 5 C0.75925781 4.62746094 1.51851563 4.25492188 2.30078125 3.87109375 C3.29464844 3.39800781 4.28851563 2.92492187 5.3125 2.4375 C6.29863281 1.96183594 7.28476562 1.48617187 8.30078125 0.99609375 C11 0 11 0 14 1 C11.56781941 2.19963643 9.13029422 3.38484438 6.6875 4.5625 C5.99720703 4.90474609 5.30691406 5.24699219 4.59570312 5.59960938 C-0.66015625 8.11328125 -0.66015625 8.11328125 -4 7 C-2.68 4.69 -1.36 2.38 0 0 Z " fill="#CFCFCF" transform="translate(470,588)"/>
<path d="M0 0 C3.75730247 1.6281644 6.616823 4.01401917 9.75 6.625 C11.22726562 7.85089844 11.22726562 7.85089844 12.734375 9.1015625 C13.85585938 10.04128906 13.85585938 10.04128906 15 11 C11.24259229 11 10.27223398 9.57780207 7.5625 7.1796875 C5.48038559 5.60769112 3.57078637 5.22683409 1 5 C0.67 3.35 0.34 1.7 0 0 Z " fill="#C7C7C7" transform="translate(383,689)"/>
<path d="M0 0 C0.66 0.33 1.32 0.66 2 1 C-2.455 3.97 -2.455 3.97 -7 7 C-7.33 6.34 -7.66 5.68 -8 5 C-8.66 4.67 -9.32 4.34 -10 4 C-10 3.01 -10 2.02 -10 1 C-8.906875 1.20625 -7.81375 1.4125 -6.6875 1.625 C-2.9161599 2.40346525 -2.9161599 2.40346525 0 0 Z " fill="#E0E0E1" transform="translate(554,567)"/>
<path d="M0 0 C0.33 0 0.66 0 1 0 C1.103125 0.9075 1.20625 1.815 1.3125 2.75 C2.00414949 6.01961575 2.82134921 7.53717737 5 10 C4.01 10 3.02 10 2 10 C2 11.98 2 13.96 2 16 C1.67 16 1.34 16 1 16 C-0.12862175 10.63904667 -0.09688221 5.44693314 0 0 Z " fill="#D6D6D5" transform="translate(432,426)"/>
<path d="M0 0 C1.25127906 3.54667178 0.72285053 5.72253438 -0.4375 9.25 C-0.72496094 10.14203125 -1.01242187 11.0340625 -1.30859375 11.953125 C-1.53675781 12.62859375 -1.76492188 13.3040625 -2 14 C-2.99 13.67 -3.98 13.34 -5 13 C-4.45276317 9.62537285 -3.9451 7.91765 -2 5 C-1.30686092 3.34416775 -0.63525576 1.67889021 0 0 Z " fill="#D1D1D2" transform="translate(548,366)"/>
<path d="M0 0 C1.09898702 3.29696105 0.87124444 4.40494903 0.0625 7.6875 C-0.13214844 8.49574219 -0.32679688 9.30398438 -0.52734375 10.13671875 C-0.68332031 10.75160156 -0.83929688 11.36648438 -1 12 C-1.66 12 -2.32 12 -3 12 C-3.33 12.99 -3.66 13.98 -4 15 C-4.66 14.67 -5.32 14.34 -6 14 C-6 13.34 -6 12.68 -6 12 C-5.34 12 -4.68 12 -4 12 C-3.79503906 11.30132813 -3.59007812 10.60265625 -3.37890625 9.8828125 C-3.10949219 8.97273437 -2.84007812 8.06265625 -2.5625 7.125 C-2.29566406 6.22007812 -2.02882813 5.31515625 -1.75390625 4.3828125 C-1 2 -1 2 0 0 Z " fill="#D7D7D6" transform="translate(440,600)"/>
<path d="M0 0 C0.433125 0.9590625 0.433125 0.9590625 0.875 1.9375 C1.82823451 4.15206079 1.82823451 4.15206079 4 5 C3.01 6.485 3.01 6.485 2 8 C0.68 8 -0.64 8 -2 8 C-2 6.02 -2 4.04 -2 2 C-1.67 2.66 -1.34 3.32 -1 4 C-0.67 2.68 -0.34 1.36 0 0 Z " fill="#EBEBEB" transform="translate(377,511)"/>
<path d="M0 0 C2.50037734 2.17424117 3.43628586 3.73045798 4 7 C2.02 6.01 0.04 5.02 -2 4 C-2 3.01 -2 2.02 -2 1 C-1.34 0.67 -0.68 0.34 0 0 Z " fill="#D5D5D6" transform="translate(324,618)"/>
<path d="M0 0 C1 3 1 3 1 7 C-0.65 7.33 -2.3 7.66 -4 8 C-2.68 5.36 -1.36 2.72 0 0 Z " fill="#D5D5D5" transform="translate(470,588)"/>
<path d="M0 0 C0.99 0 1.98 0 3 0 C2.67 1.65 2.34 3.3 2 5 C1.34 4.67 0.68 4.34 0 4 C0 2.68 0 1.36 0 0 Z " fill="#FAFAFA" transform="translate(551,339)"/>
<path d="M0 0 C0.33 0 0.66 0 1 0 C1 2.64 1 5.28 1 8 C0.67 8 0.34 8 0 8 C0 5.36 0 2.72 0 0 Z " fill="#EDEDEE" transform="translate(435,779)"/>
<path d="M0 0 C0.33 0 0.66 0 1 0 C1 2.64 1 5.28 1 8 C0.67 8 0.34 8 0 8 C0 5.36 0 2.72 0 0 Z " fill="#F1F2F1" transform="translate(468,776)"/>
<path d="M0 0 C1.98 0.99 1.98 0.99 4 2 C3.67 2.66 3.34 3.32 3 4 C2.01 3.34 1.02 2.68 0 2 C0 1.34 0 0.68 0 0 Z " fill="#FAFAF9" transform="translate(394,555)"/>
<path d="M0 0 C1.5 1.375 1.5 1.375 3 3 C3 3.66 3 4.32 3 5 C2.34 5 1.68 5 1 5 C0.67 3.35 0.34 1.7 0 0 Z " fill="#FAFAFB" transform="translate(384,530)"/>
<path d="M0 0 C0.66 0 1.32 0 2 0 C1.67 0.99 1.34 1.98 1 3 C0.01 3.33 -0.98 3.66 -2 4 C-2 3.34 -2 2.68 -2 2 C-1.34 2 -0.68 2 0 2 C0 1.34 0 0.68 0 0 Z " fill="#FCFCFB" transform="translate(554,449)"/>
<path d="M0 0 C0.66 0 1.32 0 2 0 C1.67 0.99 1.34 1.98 1 3 C0.34 3 -0.32 3 -1 3 C-0.67 2.01 -0.34 1.02 0 0 Z " fill="#FBFAFA" transform="translate(549,557)"/>
<path d="M0 0 C0.66 0 1.32 0 2 0 C2 1.32 2 2.64 2 4 C1.34 4 0.68 4 0 4 C0 2.68 0 1.36 0 0 Z " fill="#FAFAFA" transform="translate(382,532)"/>
<path d="M0 0 C0.33 0.66 0.66 1.32 1 2 C1.66 2.33 2.32 2.66 3 3 C2.34 3 1.68 3 1 3 C0.67 3.66 0.34 4.32 0 5 C0 3.35 0 1.7 0 0 Z " fill="#FBFBFA" transform="translate(437,446)"/>
<path d="M0 0 C0.99 0.33 1.98 0.66 3 1 C2.01 2.485 2.01 2.485 1 4 C0.67 2.68 0.34 1.36 0 0 Z " fill="#EFF0F0" transform="translate(653,281)"/>
<path d="M0 0 C0.33 0 0.66 0 1 0 C1 1.98 1 3.96 1 6 C0.67 6 0.34 6 0 6 C0 4.02 0 2.04 0 0 Z " fill="#F5F5F5" transform="translate(468,769)"/>
<path d="M0 0 C0.33 0 0.66 0 1 0 C1 1.65 1 3.3 1 5 C0.34 3.68 -0.32 2.36 -1 1 C-0.67 0.67 -0.34 0.34 0 0 Z " fill="#F5F6F6" transform="translate(437,758)"/>
<path d="M0 0 C1.32 0.33 2.64 0.66 4 1 C3.34 1.66 2.68 2.32 2 3 C2 2.34 2 1.68 2 1 C1.34 0.67 0.68 0.34 0 0 Z " fill="#F7F6F6" transform="translate(490,725)"/>
<path d="M0 0 C0.99 0.33 1.98 0.66 3 1 C2.67 1.66 2.34 2.32 2 3 C1.34 2.67 0.68 2.34 0 2 C0 1.34 0 0.68 0 0 Z " fill="#F7F8F9" transform="translate(469,529)"/>
<path d="M0 0 C0.66 0.33 1.32 0.66 2 1 C0.02 1.99 0.02 1.99 -2 3 C-1.34 2.01 -0.68 1.02 0 0 Z " fill="#F6F7F7" transform="translate(457,296)"/>
<path d="M0 0 C0.33 0 0.66 0 1 0 C1 1.65 1 3.3 1 5 C0.67 5 0.34 5 0 5 C0 3.35 0 1.7 0 0 Z " fill="#EEEEEF" transform="translate(468,786)"/>
<path d="M0 0 C0.33 0 0.66 0 1 0 C1 1.65 1 3.3 1 5 C0.67 5 0.34 5 0 5 C0 3.35 0 1.7 0 0 Z " fill="#F3F3F2" transform="translate(436,763)"/>
<path d="M0 0 C0.33 0.66 0.66 1.32 1 2 C-0.32 1.67 -1.64 1.34 -3 1 C-2.01 0.67 -1.02 0.34 0 0 Z " fill="#F8F8F7" transform="translate(503,722)"/>
<path d="M0 0 C0.66 0 1.32 0 2 0 C1.67 1.32 1.34 2.64 1 4 C0.67 2.68 0.34 1.36 0 0 Z " fill="#FAFBFA" transform="translate(449,667)"/>
<path d="M0 0 C1.32 0.33 2.64 0.66 4 1 C3.01 1.33 2.02 1.66 1 2 C0.67 1.34 0.34 0.68 0 0 Z " fill="#F8FAF9" transform="translate(464,616)"/>
<path d="M0 0 C0.99 0 1.98 0 3 0 C2.67 0.66 2.34 1.32 2 2 C1.34 2 0.68 2 0 2 C0 1.34 0 0.68 0 0 Z " fill="#F8F8F8" transform="translate(464,592)"/>
<path d="M0 0 C0.66 0.66 1.32 1.32 2 2 C0.68 1.67 -0.64 1.34 -2 1 C-1.34 0.67 -0.68 0.34 0 0 Z " fill="#FBFAF9" transform="translate(526,570)"/>
<path d="M0 0 C0.33 0.66 0.66 1.32 1 2 C0.34 2.66 -0.32 3.32 -1 4 C-0.67 2.68 -0.34 1.36 0 0 Z " fill="#FAF9F9" transform="translate(403,569)"/>
<path d="M0 0 C0.66 1.32 1.32 2.64 2 4 C1.34 4 0.68 4 0 4 C0 2.68 0 1.36 0 0 Z " fill="#EEEFEE" transform="translate(298,553)"/>
<path d="M0 0 C0 0.99 0 1.98 0 3 C-0.66 2.67 -1.32 2.34 -2 2 C-1.34 1.34 -0.68 0.68 0 0 Z " fill="#F7F8F7" transform="translate(606,522)"/>
<path d="M0 0 C0.33 0.66 0.66 1.32 1 2 C0.01 2.33 -0.98 2.66 -2 3 C-2 2.34 -2 1.68 -2 1 C-1.34 0.67 -0.68 0.34 0 0 Z " fill="#FBFBFA" transform="translate(540,458)"/>
<path d="M0 0 C0.99 0.33 1.98 0.66 3 1 C1.68 1.33 0.36 1.66 -1 2 C-0.67 1.34 -0.34 0.68 0 0 Z " fill="#FAF8F8" transform="translate(581,422)"/>
<path d="M0 0 C0.66 0 1.32 0 2 0 C1.67 0.99 1.34 1.98 1 3 C0.67 2.01 0.34 1.02 0 0 Z " fill="#F8F7F7" transform="translate(597,409)"/>
<path d="M0 0 C0.33 1.32 0.66 2.64 1 4 C0.34 3.67 -0.32 3.34 -1 3 C-0.67 2.01 -0.34 1.02 0 0 Z " fill="#F8F8F7" transform="translate(556,324)"/>
<path d="M0 0 C0.99 0.33 1.98 0.66 3 1 C2.01 1.33 1.02 1.66 0 2 C0 1.34 0 0.68 0 0 Z " fill="#F7F7F6" transform="translate(496,724)"/>
<path d="M0 0 C1 4 1 4 1 4 Z " fill="#F9F8F8" transform="translate(444,700)"/>
<path d="M0 0 C1 4 1 4 1 4 Z " fill="#F9F8F9" transform="translate(421,686)"/>
<path d="M0 0 C1 4 1 4 1 4 Z " fill="#F9F9F9" transform="translate(449,672)"/>
<path d="M0 0 C0.99 0.495 0.99 0.495 2 1 C1.67 1.66 1.34 2.32 1 3 C0.67 2.01 0.34 1.02 0 0 Z " fill="#F0F0F0" transform="translate(312,600)"/>
<path d="M0 0 C0.99 0.33 1.98 0.66 3 1 C2.01 1.33 1.02 1.66 0 2 C0 1.34 0 0.68 0 0 Z " fill="#FAF9F9" transform="translate(484,590)"/>
<path d="M0 0 C0 3 0 3 0 3 Z " fill="#F9F9F8" transform="translate(405,573)"/>
<path d="M0 0 C0.99 0.495 0.99 0.495 2 1 C1.34 1.66 0.68 2.32 0 3 C0 2.01 0 1.02 0 0 Z " fill="#F9F8F9" transform="translate(390,558)"/>
<path d="M0 0 C0 3 0 3 0 3 Z " fill="#FAFAF9" transform="translate(394,551)"/>
<path d="M0 0 C1 4 1 4 1 4 Z " fill="#F2F2F2" transform="translate(298,548)"/>
<path d="M0 0 C0.66 0.66 1.32 1.32 2 2 C1.01 2.495 1.01 2.495 0 3 C0 2.01 0 1.02 0 0 Z " fill="#F8F8F8" transform="translate(469,534)"/>
<path d="M0 0 C1 4 1 4 1 4 Z " fill="#F3F3F3" transform="translate(700,532)"/>
<path d="M0 0 C0.99 0.33 1.98 0.66 3 1 C2.01 1.33 1.02 1.66 0 2 C0 1.34 0 0.68 0 0 Z " fill="#FAFAF9" transform="translate(520,467)"/>
<path d="M0 0 C4 1 4 1 4 1 Z " fill="#FBFAFA" transform="translate(531,398)"/>
<path d="M0 0 C0 3 0 3 0 3 Z " fill="#F8F7F8" transform="translate(543,365)"/>
<path d="M0 0 C0.66 0.66 1.32 1.32 2 2 C1.01 2.495 1.01 2.495 0 3 C0 2.01 0 1.02 0 0 Z " fill="#F9F9FA" transform="translate(548,349)"/>
<path d="M0 0 C0.99 0.33 1.98 0.66 3 1 C2.01 1 1.02 1 0 1 C0 0.67 0 0.34 0 0 Z " fill="#F6F6F5" transform="translate(434,313)"/>
<path d="" fill="#F6F6F5" transform="translate(0,0)"/>
<path d="M0 0 C0.66 0.66 1.32 1.32 2 2 C1.34 2 0.68 2 0 2 C0 1.34 0 0.68 0 0 Z " fill="#F7F8F8" transform="translate(476,731)"/>
<path d="M0 0 C3 1 3 1 3 1 Z " fill="#F5F4F4" transform="translate(522,717)"/>
<path d="" fill="#FAFAFA" transform="translate(0,0)"/>
<path d="" fill="#F9F9F9" transform="translate(0,0)"/>
<path d="" fill="#FAFAFB" transform="translate(0,0)"/>
<path d="M0 0 C0.33 0.66 0.66 1.32 1 2 C0.34 1.67 -0.32 1.34 -1 1 C-0.67 0.67 -0.34 0.34 0 0 Z " fill="#F3F3F3" transform="translate(605,677)"/>
<path d="M0 0 C0.66 0.66 1.32 1.32 2 2 C1.34 2 0.68 2 0 2 C0 1.34 0 0.68 0 0 Z " fill="#F3F2F3" transform="translate(337,642)"/>
<path d="M0 0 C0.33 0.66 0.66 1.32 1 2 C0.34 1.67 -0.32 1.34 -1 1 C-0.67 0.67 -0.34 0.34 0 0 Z " fill="#F6F6F6" transform="translate(439,613)"/>
<path d="M0 0 C0.33 0.66 0.66 1.32 1 2 C0.34 1.67 -0.32 1.34 -1 1 C-0.67 0.67 -0.34 0.34 0 0 Z " fill="#F0F1F1" transform="translate(315,605)"/>
<path d="M0 0 C0.66 0.66 1.32 1.32 2 2 C1.34 2 0.68 2 0 2 C0 1.34 0 0.68 0 0 Z " fill="#FBFBFA" transform="translate(424,602)"/>
<path d="M0 0 C0.99 0.495 0.99 0.495 2 1 C1.01 1.495 1.01 1.495 0 2 C0 1.34 0 0.68 0 0 Z " fill="#FAFAF9" transform="translate(418,595)"/>
<path d="M0 0 C0.66 0 1.32 0 2 0 C1.67 0.66 1.34 1.32 1 2 C0.67 1.34 0.34 0.68 0 0 Z " fill="#FBFBFA" transform="translate(416,592)"/>
<path d="" fill="#F4F2F2" transform="translate(0,0)"/>
<path d="M0 0 C0.99 0.495 0.99 0.495 2 1 C1.01 1.495 1.01 1.495 0 2 C0 1.34 0 0.68 0 0 Z " fill="#FBFCFB" transform="translate(532,578)"/>
<path d="M0 0 C0.33 0.66 0.66 1.32 1 2 C0.34 1.67 -0.32 1.34 -1 1 C-0.67 0.67 -0.34 0.34 0 0 Z " fill="#FAF9FA" transform="translate(474,573)"/>
<path d="M0 0 C0.99 0.495 0.99 0.495 2 1 C1.01 1.495 1.01 1.495 0 2 C0 1.34 0 0.68 0 0 Z " fill="#FAFBFA" transform="translate(460,558)"/>
<path d="" fill="#FBFAFA" transform="translate(0,0)"/>
<path d="" fill="#FBFBFA" transform="translate(0,0)"/>
<path d="" fill="#FCFCFC" transform="translate(0,0)"/>
<path d="M0 0 C0.66 0 1.32 0 2 0 C1.67 0.66 1.34 1.32 1 2 C0.67 1.34 0.34 0.68 0 0 Z " fill="#F9F9FA" transform="translate(583,543)"/>
<path d="" fill="#FBFBFA" transform="translate(0,0)"/>
<path d="" fill="#FCFAFA" transform="translate(0,0)"/>
<path d="M0 0 C3 1 3 1 3 1 Z " fill="#FAFAF9" transform="translate(468,538)"/>
<path d="M0 0 C0.99 0.495 0.99 0.495 2 1 C1.01 1.495 1.01 1.495 0 2 C0 1.34 0 0.68 0 0 Z " fill="#F7F9F9" transform="translate(592,536)"/>
<path d="M0 0 C0.33 0.66 0.66 1.32 1 2 C0.34 1.67 -0.32 1.34 -1 1 C-0.67 0.67 -0.34 0.34 0 0 Z " fill="#FAFAF9" transform="translate(589,534)"/>
<path d="M0 0 C0.99 0.495 0.99 0.495 2 1 C1.01 1.495 1.01 1.495 0 2 C0 1.34 0 0.68 0 0 Z " fill="#FAFAF8" transform="translate(490,532)"/>
<path d="M0 0 C3 1 3 1 3 1 Z " fill="#F9F9F9" transform="translate(590,531)"/>
<path d="" fill="#FBFBFB" transform="translate(0,0)"/>
<path d="" fill="#F2F2F2" transform="translate(0,0)"/>
<path d="" fill="#F1F1F1" transform="translate(0,0)"/>
<path d="M0 0 C0.99 0.495 0.99 0.495 2 1 C1.01 1.495 1.01 1.495 0 2 C0 1.34 0 0.68 0 0 Z " fill="#F5F6F6" transform="translate(608,520)"/>
<path d="" fill="#F0F1F1" transform="translate(0,0)"/>
<path d="" fill="#F9F9F9" transform="translate(0,0)"/>
<path d="M0 0 C0.99 0.495 0.99 0.495 2 1 C1.01 1.495 1.01 1.495 0 2 C0 1.34 0 0.68 0 0 Z " fill="#F9F8F8" transform="translate(499,509)"/>
<path d="M0 0 C0.99 0.495 0.99 0.495 2 1 C1.01 1.495 1.01 1.495 0 2 C0 1.34 0 0.68 0 0 Z " fill="#F8F7F7" transform="translate(486,502)"/>
<path d="M0 0 C0.33 0.66 0.66 1.32 1 2 C0.34 1.67 -0.32 1.34 -1 1 C-0.67 0.67 -0.34 0.34 0 0 Z " fill="#FAFAFA" transform="translate(455,501)"/>
<path d="" fill="#FBFBFB" transform="translate(0,0)"/>
<path d="" fill="#FAF9F9" transform="translate(0,0)"/>
<path d="" fill="#F1F0F0" transform="translate(0,0)"/>
<path d="" fill="#FAFAFA" transform="translate(0,0)"/>
<path d="M0 0 C0.99 0.495 0.99 0.495 2 1 C1.01 1.495 1.01 1.495 0 2 C0 1.34 0 0.68 0 0 Z " fill="#FBFBFC" transform="translate(500,470)"/>
<path d="M0 0 C0.66 0 1.32 0 2 0 C1.67 0.66 1.34 1.32 1 2 C0.67 1.34 0.34 0.68 0 0 Z " fill="#FCFCFC" transform="translate(556,448)"/>
<path d="" fill="#FBFBFB" transform="translate(0,0)"/>
<path d="M0 0 C0.99 0.495 0.99 0.495 2 1 C1.01 1.495 1.01 1.495 0 2 C0 1.34 0 0.68 0 0 Z " fill="#F8F8F8" transform="translate(568,440)"/>
<path d="M0 0 C0.66 0.66 1.32 1.32 2 2 C1.34 2 0.68 2 0 2 C0 1.34 0 0.68 0 0 Z " fill="#FAF9F9" transform="translate(555,438)"/>
<path d="M0 0 C0.66 0 1.32 0 2 0 C1.67 0.66 1.34 1.32 1 2 C0.67 1.34 0.34 0.68 0 0 Z " fill="#FBFAFA" transform="translate(435,437)"/>
<path d="M0 0 C0.66 0 1.32 0 2 0 C1.67 0.66 1.34 1.32 1 2 C0.67 1.34 0.34 0.68 0 0 Z " fill="#FBFBFB" transform="translate(528,419)"/>
<path d="" fill="#F2F3F2" transform="translate(0,0)"/>
<path d="M0 0 C0.66 0 1.32 0 2 0 C1.67 0.66 1.34 1.32 1 2 C0.67 1.34 0.34 0.68 0 0 Z " fill="#F9F8F9" transform="translate(594,409)"/>
<path d="" fill="#F2F3F2" transform="translate(0,0)"/>
<path d="M0 0 C0.66 0.66 1.32 1.32 2 2 C1.34 2 0.68 2 0 2 C0 1.34 0 0.68 0 0 Z " fill="#FBFBFB" transform="translate(540,373)"/>
<path d="M0 0 C0.66 0 1.32 0 2 0 C1.67 0.66 1.34 1.32 1 2 C0.67 1.34 0.34 0.68 0 0 Z " fill="#FBFBFB" transform="translate(543,371)"/>
<path d="M0 0 C0.66 0.66 1.32 1.32 2 2 C1.34 2 0.68 2 0 2 C0 1.34 0 0.68 0 0 Z " fill="#F9F9F9" transform="translate(550,343)"/>
<path d="M0 0 C0.99 0.495 0.99 0.495 2 1 C1.01 1.495 1.01 1.495 0 2 C0 1.34 0 0.68 0 0 Z " fill="#F6F6F6" transform="translate(401,339)"/>
<path d="M0 0 C0.66 0.66 1.32 1.32 2 2 C1.34 2 0.68 2 0 2 C0 1.34 0 0.68 0 0 Z " fill="#F1F2F1" transform="translate(661,296)"/>
<path d="M0 0 C0.66 0 1.32 0 2 0 C1.67 0.66 1.34 1.32 1 2 C0.67 1.34 0.34 0.68 0 0 Z " fill="#EEECED" transform="translate(598,199)"/>
<path d="M0 0 C2 1 2 1 2 1 Z " fill="#E2E2E1" transform="translate(454,810)"/>
<path d="M0 0 C2 1 2 1 2 1 Z " fill="#F6F7F5" transform="translate(488,726)"/>
<path d="" fill="#F8F7F9" transform="translate(0,0)"/>
<path d="M0 0 C2 1 2 1 2 1 Z " fill="#F6F5F4" transform="translate(516,719)"/>
<path d="" fill="#F8F9F7" transform="translate(0,0)"/>
<path d="M0 0 C2 1 2 1 2 1 Z " fill="#F5F5F5" transform="translate(525,716)"/>
<path d="M0 0 C2 1 2 1 2 1 Z " fill="#F5F4F3" transform="translate(540,711)"/>
<path d="" fill="#F0F0F0" transform="translate(0,0)"/>
<path d="M0 0 C2 1 2 1 2 1 Z " fill="#F4F3F3" transform="translate(545,709)"/>
<path d="" fill="#F8F9F9" transform="translate(0,0)"/>
<path d="" fill="#F9F7F8" transform="translate(0,0)"/>
<path d="" fill="#FAFAFA" transform="translate(0,0)"/>
<path d="" fill="#FAFAF8" transform="translate(0,0)"/>
<path d="" fill="#F9F8F8" transform="translate(0,0)"/>
<path d="" fill="#F8F7F6" transform="translate(0,0)"/>
<path d="M0 0 C2 1 2 1 2 1 Z " fill="#F0F1F0" transform="translate(661,622)"/>
<path d="" fill="#F6F6F5" transform="translate(0,0)"/>
<path d="" fill="#F3F3F2" transform="translate(0,0)"/>
<path d="" fill="#F4F4F4" transform="translate(0,0)"/>
<path d="" fill="#FBFAF9" transform="translate(0,0)"/>
<path d="M0 0 C2 1 2 1 2 1 Z " fill="#F9FAFA" transform="translate(418,598)"/>
<path d="" fill="#FAFAFB" transform="translate(0,0)"/>
<path d="" fill="#F8F9F9" transform="translate(0,0)"/>
<path d="M0 0 C2 1 2 1 2 1 Z " fill="#F8F8F7" transform="translate(446,592)"/>
<path d="M0 0 C2 1 2 1 2 1 Z " fill="#F7F8F7" transform="translate(480,591)"/>
<path d="" fill="#FBFCFA" transform="translate(0,0)"/>
<path d="" fill="#FBFBFB" transform="translate(0,0)"/>
<path d="" fill="#FAF8F9" transform="translate(0,0)"/>
<path d="" fill="#FBFDFC" transform="translate(0,0)"/>
<path d="" fill="#FBFBFB" transform="translate(0,0)"/>
<path d="" fill="#EFEEEF" transform="translate(0,0)"/>
<path d="" fill="#FAF9FA" transform="translate(0,0)"/>
<path d="M0 0 C2 1 2 1 2 1 Z " fill="#F9F8F8" transform="translate(453,574)"/>
<path d="" fill="#FAFAFA" transform="translate(0,0)"/>
<path d="" fill="#F9FAFA" transform="translate(0,0)"/>
<path d="M0 0 C2 1 2 1 2 1 Z " fill="#F9F9F8" transform="translate(531,567)"/>
<path d="" fill="#F8F9F9" transform="translate(0,0)"/>
<path d="" fill="#FBFCFA" transform="translate(0,0)"/>
<path d="" fill="#F0F1F1" transform="translate(0,0)"/>
<path d="" fill="#EFEEEF" transform="translate(0,0)"/>
<path d="M0 0 C2 1 2 1 2 1 Z " fill="#FBFBFA" transform="translate(561,560)"/>
<path d="" fill="#F0F0EF" transform="translate(0,0)"/>
<path d="" fill="#FBFBFB" transform="translate(0,0)"/>
<path d="" fill="#FAF9FA" transform="translate(0,0)"/>
<path d="" fill="#FCFBFD" transform="translate(0,0)"/>
<path d="M0 0 C2 1 2 1 2 1 Z " fill="#FBFBFB" transform="translate(388,546)"/>
<path d="" fill="#FBF9F9" transform="translate(0,0)"/>
<path d="M0 0 C2 1 2 1 2 1 Z " fill="#FAF8F9" transform="translate(582,538)"/>
<path d="" fill="#F9FAFB" transform="translate(0,0)"/>
<path d="" fill="#FAFAFA" transform="translate(0,0)"/>
<path d="M0 0 C2 1 2 1 2 1 Z " fill="#F7F8F8" transform="translate(584,535)"/>
<path d="M0 0 C2 1 2 1 2 1 Z " fill="#F8F8F8" transform="translate(586,534)"/>
<path d="" fill="#FBFAF9" transform="translate(0,0)"/>
<path d="" fill="#FBFBFA" transform="translate(0,0)"/>
<path d="M0 0 C2 1 2 1 2 1 Z " fill="#FCFBFA" transform="translate(380,524)"/>
<path d="" fill="#FBFAFB" transform="translate(0,0)"/>
<path d="" fill="#F0EFF0" transform="translate(0,0)"/>
<path d="" fill="#F5F7F4" transform="translate(0,0)"/>
<path d="" fill="#FBFCFD" transform="translate(0,0)"/>
<path d="" fill="#FCFCFC" transform="translate(0,0)"/>
<path d="M0 0 C2 1 2 1 2 1 Z " fill="#FCFBFA" transform="translate(468,502)"/>
<path d="M0 0 C2 1 2 1 2 1 Z " fill="#FBFAFA" transform="translate(459,486)"/>
<path d="" fill="#FAFAFA" transform="translate(0,0)"/>
<path d="" fill="#F3F2F2" transform="translate(0,0)"/>
<path d="" fill="#FBFAF9" transform="translate(0,0)"/>
<path d="" fill="#FDFCFB" transform="translate(0,0)"/>
<path d="" fill="#FAFAFA" transform="translate(0,0)"/>
<path d="" fill="#F7F8F8" transform="translate(0,0)"/>
<path d="" fill="#FAF9FA" transform="translate(0,0)"/>
<path d="M0 0 C2 1 2 1 2 1 Z " fill="#FAFBFB" transform="translate(545,456)"/>
<path d="M0 0 C2 1 2 1 2 1 Z " fill="#FBFAFB" transform="translate(539,456)"/>
<path d="M0 0 C2 1 2 1 2 1 Z " fill="#F9F9F8" transform="translate(520,455)"/>
<path d="" fill="#FBFAF9" transform="translate(0,0)"/>
<path d="M0 0 C2 1 2 1 2 1 Z " fill="#FBF9F8" transform="translate(523,454)"/>
<path d="" fill="#F8F8F7" transform="translate(0,0)"/>
<path d="" fill="#FBFBFA" transform="translate(0,0)"/>
<path d="" fill="#F2F2F2" transform="translate(0,0)"/>
<path d="M0 0 C2 1 2 1 2 1 Z " fill="#F9F8F9" transform="translate(556,437)"/>
<path d="" fill="#F9FBF8" transform="translate(0,0)"/>
<path d="" fill="#FAF9F9" transform="translate(0,0)"/>
<path d="" fill="#FBF9FA" transform="translate(0,0)"/>
<path d="" fill="#FBFBFC" transform="translate(0,0)"/>
<path d="M0 0 C2 1 2 1 2 1 Z " fill="#FAF9F8" transform="translate(523,415)"/>
<path d="M0 0 C2 1 2 1 2 1 Z " fill="#F8F9F9" transform="translate(588,414)"/>
<path d="" fill="#FAFAF9" transform="translate(0,0)"/>
<path d="" fill="#F8F8F7" transform="translate(0,0)"/>
<path d="" fill="#F6F6F7" transform="translate(0,0)"/>
<path d="" fill="#F4F4F3" transform="translate(0,0)"/>
<path d="" fill="#F5F4F5" transform="translate(0,0)"/>
<path d="" fill="#FCFCFB" transform="translate(0,0)"/>
<path d="" fill="#FCFBFB" transform="translate(0,0)"/>
<path d="M0 0 C2 1 2 1 2 1 Z " fill="#FCFBFA" transform="translate(532,391)"/>
<path d="" fill="#F4F3F3" transform="translate(0,0)"/>
<path d="" fill="#FCFDFC" transform="translate(0,0)"/>
<path d="" fill="#F9FAF9" transform="translate(0,0)"/>
<path d="" fill="#FAFAF9" transform="translate(0,0)"/>
<path d="" fill="#FBFBFB" transform="translate(0,0)"/>
<path d="" fill="#F9F9F9" transform="translate(0,0)"/>
<path d="M0 0 C2 1 2 1 2 1 Z " fill="#F4F5F4" transform="translate(440,309)"/>
<path d="" fill="#F3F4F3" transform="translate(0,0)"/>
<path d="M0 0 C2 1 2 1 2 1 Z " fill="#F1F1F0" transform="translate(657,289)"/>
<path d="" fill="#F0EFEE" transform="translate(0,0)"/>
<path d="" fill="#F2F2F2" transform="translate(0,0)"/>
<path d="M0 0 C2 1 2 1 2 1 Z " fill="#F6F6F5" transform="translate(503,258)"/>
<path d="" fill="#F3F3F3" transform="translate(0,0)"/>
<path d="" fill="#F4F4F3" transform="translate(0,0)"/>
<path d="" fill="#F1EFEF" transform="translate(0,0)"/>
<path d="M0 0 C2 1 2 1 2 1 Z " fill="#F2F1F1" transform="translate(629,242)"/>
<path d="" fill="#F3F3F2" transform="translate(0,0)"/>
<path d="" fill="#EEEFF0" transform="translate(0,0)"/>
<path d="" fill="#F6F6F5" transform="translate(0,0)"/>
<path d="" fill="#D9DBDB" transform="translate(0,0)"/>
<path d="" fill="#636363" transform="translate(0,0)"/>
<path d="" fill="#636262" transform="translate(0,0)"/>
<path d="" fill="#626162" transform="translate(0,0)"/>
<path d="" fill="#616264" transform="translate(0,0)"/>
<path d="" fill="#646362" transform="translate(0,0)"/>
<path d="" fill="#646464" transform="translate(0,0)"/>
<path d="" fill="#606160" transform="translate(0,0)"/>
<path d="" fill="#616261" transform="translate(0,0)"/>
<path d="" fill="#5F6160" transform="translate(0,0)"/>
<path d="" fill="#616160" transform="translate(0,0)"/>
<path d="" fill="#616163" transform="translate(0,0)"/>
<path d="" fill="#646362" transform="translate(0,0)"/>
<path d="" fill="#656767" transform="translate(0,0)"/>
<path d="" fill="#68696A" transform="translate(0,0)"/>
<path d="" fill="#626362" transform="translate(0,0)"/>
<path d="" fill="#626163" transform="translate(0,0)"/>
<path d="" fill="#616260" transform="translate(0,0)"/>
<path d="" fill="#606161" transform="translate(0,0)"/>
<path d="" fill="#646461" transform="translate(0,0)"/>
<path d="" fill="#656665" transform="translate(0,0)"/>
<path d="" fill="#616261" transform="translate(0,0)"/>
<path d="" fill="#606160" transform="translate(0,0)"/>
<path d="" fill="#626060" transform="translate(0,0)"/>
<path d="" fill="#626061" transform="translate(0,0)"/>
<path d="" fill="#626361" transform="translate(0,0)"/>
<path d="" fill="#686768" transform="translate(0,0)"/>
<path d="" fill="#606260" transform="translate(0,0)"/>
<path d="" fill="#606060" transform="translate(0,0)"/>
<path d="" fill="#666564" transform="translate(0,0)"/>
<path d="" fill="#626363" transform="translate(0,0)"/>
<path d="" fill="#616260" transform="translate(0,0)"/>
<path d="" fill="#616262" transform="translate(0,0)"/>
<path d="" fill="#626363" transform="translate(0,0)"/>
<path d="" fill="#626062" transform="translate(0,0)"/>
<path d="" fill="#616160" transform="translate(0,0)"/>
<path d="" fill="#6F7170" transform="translate(0,0)"/>
<path d="" fill="#6B6C6A" transform="translate(0,0)"/>
<path d="" fill="#626262" transform="translate(0,0)"/>
<path d="" fill="#E5E7E6" transform="translate(0,0)"/>
<path d="" fill="#DEDEDE" transform="translate(0,0)"/>
<path d="" fill="#E0E1E2" transform="translate(0,0)"/>
<path d="" fill="#E1E0E0" transform="translate(0,0)"/>
<path d="" fill="#E1E2E3" transform="translate(0,0)"/>
<path d="" fill="#E9E8E9" transform="translate(0,0)"/>
<path d="" fill="#E9E9EA" transform="translate(0,0)"/>
<path d="" fill="#F2F1F1" transform="translate(0,0)"/>
<path d="" fill="#F5F5F4" transform="translate(0,0)"/>
<path d="" fill="#6A6969" transform="translate(0,0)"/>
<path d="" fill="#636362" transform="translate(0,0)"/>
<path d="" fill="#F7F8FA" transform="translate(0,0)"/>
<path d="" fill="#F5F7F6" transform="translate(0,0)"/>
<path d="" fill="#636463" transform="translate(0,0)"/>
<path d="" fill="#F7F7F7" transform="translate(0,0)"/>
<path d="" fill="#F7F8F9" transform="translate(0,0)"/>
<path d="" fill="#F7F7F7" transform="translate(0,0)"/>
<path d="" fill="#F6F7F6" transform="translate(0,0)"/>
<path d="" fill="#F5F2F4" transform="translate(0,0)"/>
<path d="" fill="#F6F7FA" transform="translate(0,0)"/>
<path d="" fill="#F6F8F6" transform="translate(0,0)"/>
<path d="" fill="#F7F9F7" transform="translate(0,0)"/>
<path d="" fill="#F9F8F9" transform="translate(0,0)"/>
<path d="" fill="#F4F5F3" transform="translate(0,0)"/>
<path d="" fill="#F6F5F5" transform="translate(0,0)"/>
<path d="" fill="#F7F7F6" transform="translate(0,0)"/>
<path d="" fill="#F7F4F4" transform="translate(0,0)"/>
<path d="" fill="#F6F5F7" transform="translate(0,0)"/>
<path d="" fill="#F8F7F7" transform="translate(0,0)"/>
<path d="" fill="#636466" transform="translate(0,0)"/>
<path d="" fill="#F4F5F4" transform="translate(0,0)"/>
<path d="" fill="#F5F5F4" transform="translate(0,0)"/>
<path d="" fill="#F5F6F6" transform="translate(0,0)"/>
<path d="" fill="#F2F3F4" transform="translate(0,0)"/>
<path d="" fill="#F3F3F3" transform="translate(0,0)"/>
<path d="" fill="#F8F8F9" transform="translate(0,0)"/>
<path d="" fill="#F1F4F1" transform="translate(0,0)"/>
<path d="" fill="#F4F2F2" transform="translate(0,0)"/>
<path d="" fill="#F7F7F8" transform="translate(0,0)"/>
<path d="" fill="#F1F1F4" transform="translate(0,0)"/>
<path d="" fill="#F5F4F4" transform="translate(0,0)"/>
<path d="" fill="#F7F8F7" transform="translate(0,0)"/>
<path d="" fill="#F3F3F6" transform="translate(0,0)"/>
<path d="" fill="#F4F6F6" transform="translate(0,0)"/>
<path d="" fill="#F9FAF9" transform="translate(0,0)"/>
<path d="" fill="#F5F5F4" transform="translate(0,0)"/>
<path d="" fill="#F9F9FA" transform="translate(0,0)"/>
<path d="" fill="#F2F3F4" transform="translate(0,0)"/>
<path d="" fill="#F5F3F4" transform="translate(0,0)"/>
<path d="" fill="#F4F2F3" transform="translate(0,0)"/>
<path d="" fill="#F2F2F3" transform="translate(0,0)"/>
<path d="" fill="#FAF8F9" transform="translate(0,0)"/>
<path d="" fill="#F7F7F8" transform="translate(0,0)"/>
<path d="" fill="#F5F6F7" transform="translate(0,0)"/>
<path d="" fill="#EFEFEF" transform="translate(0,0)"/>
<path d="" fill="#F5F3F3" transform="translate(0,0)"/>
<path d="" fill="#F2F4F2" transform="translate(0,0)"/>
<path d="" fill="#F4F2F4" transform="translate(0,0)"/>
<path d="" fill="#636564" transform="translate(0,0)"/>
<path d="" fill="#F3F5F5" transform="translate(0,0)"/>
<path d="" fill="#F2F1F0" transform="translate(0,0)"/>
<path d="" fill="#EEEEED" transform="translate(0,0)"/>
<path d="" fill="#F0F0F0" transform="translate(0,0)"/>
<path d="" fill="#F1F0F2" transform="translate(0,0)"/>
<path d="" fill="#F1F3F2" transform="translate(0,0)"/>
<path d="" fill="#EFEDEF" transform="translate(0,0)"/>
<path d="" fill="#F3F1F2" transform="translate(0,0)"/>
<path d="" fill="#F3F3F4" transform="translate(0,0)"/>
<path d="" fill="#F2F2F3" transform="translate(0,0)"/>
<path d="" fill="#656464" transform="translate(0,0)"/>
<path d="" fill="#EDEDED" transform="translate(0,0)"/>
<path d="" fill="#F2F2F1" transform="translate(0,0)"/>
<path d="" fill="#EEEFED" transform="translate(0,0)"/>
<path d="" fill="#F4F5F4" transform="translate(0,0)"/>
<path d="" fill="#F0F1F0" transform="translate(0,0)"/>
<path d="" fill="#FAFBFA" transform="translate(0,0)"/>
<path d="" fill="#F9F9FA" transform="translate(0,0)"/>
<path d="" fill="#F2F3F2" transform="translate(0,0)"/>
<path d="" fill="#EFF0F0" transform="translate(0,0)"/>
<path d="" fill="#F4F2F2" transform="translate(0,0)"/>
<path d="" fill="#EFF1EF" transform="translate(0,0)"/>
<path d="" fill="#F0EFEE" transform="translate(0,0)"/>
<path d="" fill="#EFEDEE" transform="translate(0,0)"/>
<path d="" fill="#EFEFF1" transform="translate(0,0)"/>
<path d="" fill="#EEF0EE" transform="translate(0,0)"/>
<path d="" fill="#F2F1F1" transform="translate(0,0)"/>
<path d="" fill="#F0F0F0" transform="translate(0,0)"/>
<path d="" fill="#F1F2F2" transform="translate(0,0)"/>
<path d="" fill="#F2F4F4" transform="translate(0,0)"/>
<path d="" fill="#F0F2F1" transform="translate(0,0)"/>
<path d="" fill="#646567" transform="translate(0,0)"/>
<path d="" fill="#F3F3F2" transform="translate(0,0)"/>
<path d="" fill="#FAF9FA" transform="translate(0,0)"/>
<path d="" fill="#F1F2F1" transform="translate(0,0)"/>
<path d="" fill="#F1F1F2" transform="translate(0,0)"/>
<path d="" fill="#EFEDF0" transform="translate(0,0)"/>
<path d="" fill="#F0EFEE" transform="translate(0,0)"/>
<path d="" fill="#EFEFEF" transform="translate(0,0)"/>
<path d="" fill="#FAF8F7" transform="translate(0,0)"/>
<path d="" fill="#F0EFF1" transform="translate(0,0)"/>
<path d="" fill="#F0F1F0" transform="translate(0,0)"/>
<path d="" fill="#ECECED" transform="translate(0,0)"/>
<path d="" fill="#F9F8F8" transform="translate(0,0)"/>
<path d="" fill="#EFF0EF" transform="translate(0,0)"/>
<path d="" fill="#EEEFEE" transform="translate(0,0)"/>
<path d="" fill="#FAFAFA" transform="translate(0,0)"/>
<path d="" fill="#F4F7F7" transform="translate(0,0)"/>
<path d="" fill="#6B6B6A" transform="translate(0,0)"/>
<path d="" fill="#F1F2F2" transform="translate(0,0)"/>
<path d="" fill="#F9F7F8" transform="translate(0,0)"/>
<path d="" fill="#F9F8F9" transform="translate(0,0)"/>
<path d="" fill="#656566" transform="translate(0,0)"/>
<path d="" fill="#F7F7F7" transform="translate(0,0)"/>
<path d="" fill="#F8F9F9" transform="translate(0,0)"/>
<path d="" fill="#666666" transform="translate(0,0)"/>
<path d="" fill="#F5F7F5" transform="translate(0,0)"/>
<path d="" fill="#EFEEF0" transform="translate(0,0)"/>
<path d="" fill="#F9FAF9" transform="translate(0,0)"/>
<path d="" fill="#EFF0EF" transform="translate(0,0)"/>
<path d="" fill="#F8F6F5" transform="translate(0,0)"/>
<path d="" fill="#F7F7F6" transform="translate(0,0)"/>
<path d="" fill="#F1EEEF" transform="translate(0,0)"/>
<path d="" fill="#F8F8F7" transform="translate(0,0)"/>
<path d="" fill="#FAF8F9" transform="translate(0,0)"/>
<path d="" fill="#F8F7F7" transform="translate(0,0)"/>
<path d="" fill="#F8FAFA" transform="translate(0,0)"/>
<path d="" fill="#EFEFEF" transform="translate(0,0)"/>
<path d="" fill="#FAF9F9" transform="translate(0,0)"/>
<path d="" fill="#FBFAF9" transform="translate(0,0)"/>
<path d="" fill="#F9FAF9" transform="translate(0,0)"/>
<path d="" fill="#FCFBFB" transform="translate(0,0)"/>
<path d="" fill="#F9FAF9" transform="translate(0,0)"/>
<path d="" fill="#F1F0EF" transform="translate(0,0)"/>
<path d="" fill="#FAFAF9" transform="translate(0,0)"/>
<path d="" fill="#F5F5F5" transform="translate(0,0)"/>
<path d="" fill="#FAFBFB" transform="translate(0,0)"/>
<path d="" fill="#F8F9F9" transform="translate(0,0)"/>
<path d="" fill="#FBFBFB" transform="translate(0,0)"/>
<path d="" fill="#F0EFEF" transform="translate(0,0)"/>
<path d="" fill="#F6F9F9" transform="translate(0,0)"/>
<path d="" fill="#FCFCFB" transform="translate(0,0)"/>
<path d="" fill="#F9F8F6" transform="translate(0,0)"/>
<path d="" fill="#FCF9FA" transform="translate(0,0)"/>
<path d="" fill="#676565" transform="translate(0,0)"/>
<path d="" fill="#F8F8F5" transform="translate(0,0)"/>
<path d="" fill="#F8F7F8" transform="translate(0,0)"/>
<path d="" fill="#F7F8F7" transform="translate(0,0)"/>
<path d="" fill="#F9F9F8" transform="translate(0,0)"/>
<path d="" fill="#FCFCFB" transform="translate(0,0)"/>
<path d="" fill="#F7F7F7" transform="translate(0,0)"/>
<path d="" fill="#F9FAF9" transform="translate(0,0)"/>
<path d="" fill="#F6F6F6" transform="translate(0,0)"/>
<path d="" fill="#F9F9F8" transform="translate(0,0)"/>
<path d="" fill="#FBFCFA" transform="translate(0,0)"/>
<path d="" fill="#FBFCFB" transform="translate(0,0)"/>
<path d="" fill="#FCFDFC" transform="translate(0,0)"/>
<path d="" fill="#FEFDFD" transform="translate(0,0)"/>
<path d="" fill="#FAFAFB" transform="translate(0,0)"/>
<path d="" fill="#F9FAFB" transform="translate(0,0)"/>
<path d="" fill="#FBFBFC" transform="translate(0,0)"/>
<path d="" fill="#FAFAF8" transform="translate(0,0)"/>
<path d="" fill="#FAFAFB" transform="translate(0,0)"/>
<path d="" fill="#FCFBFA" transform="translate(0,0)"/>
<path d="" fill="#F0EFEF" transform="translate(0,0)"/>
<path d="" fill="#F7F9F8" transform="translate(0,0)"/>
<path d="" fill="#FAFAFA" transform="translate(0,0)"/>
<path d="" fill="#FBFAFB" transform="translate(0,0)"/>
<path d="" fill="#FCFCFC" transform="translate(0,0)"/>
<path d="" fill="#FCFBFA" transform="translate(0,0)"/>
<path d="" fill="#FAFAFA" transform="translate(0,0)"/>
<path d="" fill="#F9FAF9" transform="translate(0,0)"/>
<path d="" fill="#FBFAF9" transform="translate(0,0)"/>
<path d="" fill="#FCFBFB" transform="translate(0,0)"/>
<path d="" fill="#FBFAFB" transform="translate(0,0)"/>
<path d="" fill="#FCFCFB" transform="translate(0,0)"/>
<path d="" fill="#FEFDFC" transform="translate(0,0)"/>
<path d="" fill="#676766" transform="translate(0,0)"/>
<path d="" fill="#FAF9F9" transform="translate(0,0)"/>
<path d="" fill="#F0F0F2" transform="translate(0,0)"/>
<path d="" fill="#FCFCFA" transform="translate(0,0)"/>
<path d="" fill="#FAF9FA" transform="translate(0,0)"/>
<path d="" fill="#F8F9F9" transform="translate(0,0)"/>
<path d="" fill="#F0EEF0" transform="translate(0,0)"/>
<path d="" fill="#F2F2F2" transform="translate(0,0)"/>
<path d="" fill="#FFFDFD" transform="translate(0,0)"/>
<path d="" fill="#FAFAFA" transform="translate(0,0)"/>
<path d="" fill="#FAF9F9" transform="translate(0,0)"/>
<path d="" fill="#FAFBFB" transform="translate(0,0)"/>
<path d="" fill="#FDFBFD" transform="translate(0,0)"/>
<path d="" fill="#FBF8F9" transform="translate(0,0)"/>
<path d="" fill="#F8F7F8" transform="translate(0,0)"/>
<path d="" fill="#FAFBFB" transform="translate(0,0)"/>
<path d="" fill="#FAFAFB" transform="translate(0,0)"/>
<path d="" fill="#F9F9F9" transform="translate(0,0)"/>
<path d="" fill="#F1EFF1" transform="translate(0,0)"/>
<path d="" fill="#FCFBFA" transform="translate(0,0)"/>
<path d="" fill="#F8F7F6" transform="translate(0,0)"/>
<path d="" fill="#FBFBF9" transform="translate(0,0)"/>
<path d="" fill="#FBFDFC" transform="translate(0,0)"/>
<path d="" fill="#FBFCFB" transform="translate(0,0)"/>
<path d="" fill="#FAFBFA" transform="translate(0,0)"/>
<path d="" fill="#FBFAFA" transform="translate(0,0)"/>
<path d="" fill="#FCFAFA" transform="translate(0,0)"/>
<path d="" fill="#FBFBF9" transform="translate(0,0)"/>
<path d="" fill="#FAF9F9" transform="translate(0,0)"/>
<path d="" fill="#FBFBFA" transform="translate(0,0)"/>
<path d="" fill="#FBFCFB" transform="translate(0,0)"/>
<path d="" fill="#FAF9FA" transform="translate(0,0)"/>
<path d="" fill="#FAF9F9" transform="translate(0,0)"/>
<path d="" fill="#F7F7F8" transform="translate(0,0)"/>
<path d="" fill="#F9FAFA" transform="translate(0,0)"/>
<path d="" fill="#FAFBF9" transform="translate(0,0)"/>
<path d="" fill="#EDEDED" transform="translate(0,0)"/>
<path d="" fill="#F8F8F9" transform="translate(0,0)"/>
<path d="" fill="#FAFAFC" transform="translate(0,0)"/>
<path d="" fill="#F1EFEF" transform="translate(0,0)"/>
<path d="" fill="#FBFBFA" transform="translate(0,0)"/>
<path d="" fill="#FAFAFA" transform="translate(0,0)"/>
<path d="" fill="#FDFCFB" transform="translate(0,0)"/>
<path d="" fill="#FAF9FB" transform="translate(0,0)"/>
<path d="" fill="#F9F8F7" transform="translate(0,0)"/>
<path d="" fill="#FAFBFC" transform="translate(0,0)"/>
<path d="" fill="#FBFCFA" transform="translate(0,0)"/>
<path d="" fill="#FBFBFB" transform="translate(0,0)"/>
<path d="" fill="#FBFAFC" transform="translate(0,0)"/>
<path d="" fill="#FCFCFD" transform="translate(0,0)"/>
<path d="" fill="#ECEEED" transform="translate(0,0)"/>
<path d="" fill="#FBFAFA" transform="translate(0,0)"/>
<path d="" fill="#FCFBFC" transform="translate(0,0)"/>
<path d="" fill="#FAFBFA" transform="translate(0,0)"/>
<path d="" fill="#FBFAFA" transform="translate(0,0)"/>
<path d="" fill="#FBFBFC" transform="translate(0,0)"/>
<path d="" fill="#EEEFEE" transform="translate(0,0)"/>
<path d="" fill="#FAFAFA" transform="translate(0,0)"/>
<path d="" fill="#FBFCFC" transform="translate(0,0)"/>
<path d="" fill="#F9FAFA" transform="translate(0,0)"/>
<path d="" fill="#FEFEFC" transform="translate(0,0)"/>
<path d="" fill="#FDFCFC" transform="translate(0,0)"/>
<path d="" fill="#FDFDFC" transform="translate(0,0)"/>
<path d="" fill="#FAF9F9" transform="translate(0,0)"/>
<path d="" fill="#FAF9FA" transform="translate(0,0)"/>
<path d="" fill="#FCFDFD" transform="translate(0,0)"/>
<path d="" fill="#F8FAF7" transform="translate(0,0)"/>
<path d="" fill="#F1EFF0" transform="translate(0,0)"/>
<path d="" fill="#FAFDFC" transform="translate(0,0)"/>
<path d="" fill="#FCFBFB" transform="translate(0,0)"/>
<path d="" fill="#FAFAFA" transform="translate(0,0)"/>
<path d="" fill="#FBFBFA" transform="translate(0,0)"/>
<path d="" fill="#FBFCFC" transform="translate(0,0)"/>
<path d="" fill="#F8F8F9" transform="translate(0,0)"/>
<path d="" fill="#FDFCFB" transform="translate(0,0)"/>
<path d="" fill="#FCFBFA" transform="translate(0,0)"/>
<path d="" fill="#FDFEFD" transform="translate(0,0)"/>
<path d="" fill="#F9FAFB" transform="translate(0,0)"/>
<path d="" fill="#FBFBFA" transform="translate(0,0)"/>
<path d="" fill="#FBFBFA" transform="translate(0,0)"/>
<path d="" fill="#FCFAFB" transform="translate(0,0)"/>
<path d="" fill="#EFEFEF" transform="translate(0,0)"/>
<path d="" fill="#FBFAFA" transform="translate(0,0)"/>
<path d="" fill="#F9F9F8" transform="translate(0,0)"/>
<path d="" fill="#FBF9FB" transform="translate(0,0)"/>
<path d="" fill="#F9F9F9" transform="translate(0,0)"/>
<path d="" fill="#F6F7F7" transform="translate(0,0)"/>
<path d="" fill="#FEFDFC" transform="translate(0,0)"/>
<path d="" fill="#F8FAF8" transform="translate(0,0)"/>
<path d="" fill="#EFEFF1" transform="translate(0,0)"/>
<path d="" fill="#F9F7F7" transform="translate(0,0)"/>
<path d="" fill="#FBFAFA" transform="translate(0,0)"/>
<path d="" fill="#F8F9F9" transform="translate(0,0)"/>
<path d="" fill="#FCFCFB" transform="translate(0,0)"/>
<path d="" fill="#FAFAF8" transform="translate(0,0)"/>
<path d="" fill="#FBFBFB" transform="translate(0,0)"/>
<path d="" fill="#FDFDFC" transform="translate(0,0)"/>
<path d="" fill="#F3F1F2" transform="translate(0,0)"/>
<path d="" fill="#FDFCFB" transform="translate(0,0)"/>
<path d="" fill="#676766" transform="translate(0,0)"/>
<path d="" fill="#F5F8F7" transform="translate(0,0)"/>
<path d="" fill="#FBFAFB" transform="translate(0,0)"/>
<path d="" fill="#FAF9F8" transform="translate(0,0)"/>
<path d="" fill="#FBFBFC" transform="translate(0,0)"/>
<path d="" fill="#F3F4F4" transform="translate(0,0)"/>
<path d="" fill="#F8FAFB" transform="translate(0,0)"/>
<path d="" fill="#FCFBFB" transform="translate(0,0)"/>
<path d="" fill="#FAFAFA" transform="translate(0,0)"/>
<path d="" fill="#FBF9FB" transform="translate(0,0)"/>
<path d="" fill="#FAFAFB" transform="translate(0,0)"/>
<path d="" fill="#FAFAFA" transform="translate(0,0)"/>
<path d="" fill="#FBFAFB" transform="translate(0,0)"/>
<path d="" fill="#F2F3F3" transform="translate(0,0)"/>
<path d="" fill="#FBFAFC" transform="translate(0,0)"/>
<path d="" fill="#FAFAFB" transform="translate(0,0)"/>
<path d="" fill="#F9F9FA" transform="translate(0,0)"/>
<path d="" fill="#F9F9FA" transform="translate(0,0)"/>
<path d="" fill="#FBFBFA" transform="translate(0,0)"/>
<path d="" fill="#FCFAFB" transform="translate(0,0)"/>
<path d="" fill="#FBFCFB" transform="translate(0,0)"/>
<path d="" fill="#FAFBFA" transform="translate(0,0)"/>
<path d="" fill="#F7F8F6" transform="translate(0,0)"/>
<path d="" fill="#FAFBFB" transform="translate(0,0)"/>
<path d="" fill="#FAFAF9" transform="translate(0,0)"/>
<path d="" fill="#FAFAFA" transform="translate(0,0)"/>
<path d="" fill="#FDFDFE" transform="translate(0,0)"/>
<path d="" fill="#FCFAFB" transform="translate(0,0)"/>
<path d="" fill="#F9F9F7" transform="translate(0,0)"/>
<path d="" fill="#FBFCF9" transform="translate(0,0)"/>
<path d="" fill="#FCFBFB" transform="translate(0,0)"/>
<path d="" fill="#F9F9F7" transform="translate(0,0)"/>
<path d="" fill="#FAFAF8" transform="translate(0,0)"/>
<path d="" fill="#FBFAFA" transform="translate(0,0)"/>
<path d="" fill="#FAFAF9" transform="translate(0,0)"/>
<path d="" fill="#F9F8F8" transform="translate(0,0)"/>
<path d="" fill="#ECECED" transform="translate(0,0)"/>
<path d="" fill="#FBF9FA" transform="translate(0,0)"/>
<path d="" fill="#F9F9F9" transform="translate(0,0)"/>
<path d="" fill="#FFFCFC" transform="translate(0,0)"/>
<path d="" fill="#FEFDFE" transform="translate(0,0)"/>
<path d="" fill="#FBF9F9" transform="translate(0,0)"/>
<path d="" fill="#FBFAFA" transform="translate(0,0)"/>
<path d="" fill="#FBFBFC" transform="translate(0,0)"/>
<path d="" fill="#F9F9F9" transform="translate(0,0)"/>
<path d="" fill="#FBFAFA" transform="translate(0,0)"/>
<path d="" fill="#F0F0EF" transform="translate(0,0)"/>
<path d="" fill="#FAF7F9" transform="translate(0,0)"/>
<path d="" fill="#FCFAFB" transform="translate(0,0)"/>
<path d="" fill="#FAF9F9" transform="translate(0,0)"/>
<path d="" fill="#F9F8F9" transform="translate(0,0)"/>
<path d="" fill="#F3F2F3" transform="translate(0,0)"/>
<path d="" fill="#FAFAFA" transform="translate(0,0)"/>
<path d="" fill="#FBFBFC" transform="translate(0,0)"/>
<path d="" fill="#FBF7F7" transform="translate(0,0)"/>
<path d="" fill="#F2EFF1" transform="translate(0,0)"/>
<path d="" fill="#F8F8F8" transform="translate(0,0)"/>
<path d="" fill="#FAF9FA" transform="translate(0,0)"/>
<path d="" fill="#FAF9FA" transform="translate(0,0)"/>
<path d="" fill="#F8F8F8" transform="translate(0,0)"/>
<path d="" fill="#F9F9F9" transform="translate(0,0)"/>
<path d="" fill="#FCFAFB" transform="translate(0,0)"/>
<path d="" fill="#FCFBF9" transform="translate(0,0)"/>
<path d="" fill="#FBFCFA" transform="translate(0,0)"/>
<path d="" fill="#F2F2F2" transform="translate(0,0)"/>
<path d="" fill="#7A7B7B" transform="translate(0,0)"/>
<path d="" fill="#F9F9FA" transform="translate(0,0)"/>
<path d="" fill="#EEEDED" transform="translate(0,0)"/>
<path d="" fill="#F9FAFA" transform="translate(0,0)"/>
<path d="" fill="#F3F4F4" transform="translate(0,0)"/>
<path d="" fill="#FAFAFB" transform="translate(0,0)"/>
<path d="" fill="#FDFDFD" transform="translate(0,0)"/>
<path d="" fill="#FCFCFC" transform="translate(0,0)"/>
<path d="" fill="#FCFDFC" transform="translate(0,0)"/>
<path d="" fill="#F4F3F2" transform="translate(0,0)"/>
<path d="" fill="#F8F8F8" transform="translate(0,0)"/>
<path d="" fill="#EFEDEF" transform="translate(0,0)"/>
<path d="" fill="#FBFAFA" transform="translate(0,0)"/>
<path d="" fill="#FBFBFB" transform="translate(0,0)"/>
<path d="" fill="#FCFCFC" transform="translate(0,0)"/>
<path d="" fill="#FCFBFB" transform="translate(0,0)"/>
<path d="" fill="#FBF9FB" transform="translate(0,0)"/>
<path d="" fill="#FAFAF8" transform="translate(0,0)"/>
<path d="" fill="#FBFAF9" transform="translate(0,0)"/>
<path d="" fill="#EEEFF0" transform="translate(0,0)"/>
<path d="" fill="#FBF9FA" transform="translate(0,0)"/>
<path d="" fill="#FBFAF9" transform="translate(0,0)"/>
<path d="" fill="#FAFCFA" transform="translate(0,0)"/>
<path d="" fill="#FBFBFA" transform="translate(0,0)"/>
<path d="" fill="#FAFAFA" transform="translate(0,0)"/>
<path d="" fill="#FDFCFC" transform="translate(0,0)"/>
<path d="" fill="#FBFBFB" transform="translate(0,0)"/>
<path d="" fill="#FDFCFA" transform="translate(0,0)"/>
<path d="" fill="#FEFEFD" transform="translate(0,0)"/>
<path d="" fill="#FAFBFB" transform="translate(0,0)"/>
<path d="" fill="#F9FAF8" transform="translate(0,0)"/>
<path d="" fill="#F0F1F1" transform="translate(0,0)"/>
<path d="" fill="#6A6A6A" transform="translate(0,0)"/>
<path d="" fill="#FBFAF9" transform="translate(0,0)"/>
<path d="" fill="#FAFCFA" transform="translate(0,0)"/>
<path d="" fill="#F8F7F6" transform="translate(0,0)"/>
<path d="" fill="#FCFBFA" transform="translate(0,0)"/>
<path d="" fill="#FAFCFB" transform="translate(0,0)"/>
<path d="" fill="#F2F1F3" transform="translate(0,0)"/>
<path d="" fill="#FAF9F8" transform="translate(0,0)"/>
<path d="" fill="#FBFBFA" transform="translate(0,0)"/>
<path d="" fill="#FCFBFC" transform="translate(0,0)"/>
<path d="" fill="#FAFBFA" transform="translate(0,0)"/>
<path d="" fill="#FCFAFA" transform="translate(0,0)"/>
<path d="" fill="#FBFBFA" transform="translate(0,0)"/>
<path d="" fill="#F3F2F3" transform="translate(0,0)"/>
<path d="" fill="#FBFAFA" transform="translate(0,0)"/>
<path d="" fill="#FAFAFA" transform="translate(0,0)"/>
<path d="" fill="#F9F9F9" transform="translate(0,0)"/>
<path d="" fill="#F0EEED" transform="translate(0,0)"/>
<path d="" fill="#F8F8F8" transform="translate(0,0)"/>
<path d="" fill="#FAFAF9" transform="translate(0,0)"/>
<path d="" fill="#F9F9FA" transform="translate(0,0)"/>
<path d="" fill="#F9F9F9" transform="translate(0,0)"/>
<path d="" fill="#F2F1EF" transform="translate(0,0)"/>
<path d="" fill="#FDFBFB" transform="translate(0,0)"/>
<path d="" fill="#F9F7F9" transform="translate(0,0)"/>
<path d="" fill="#FBF9F8" transform="translate(0,0)"/>
<path d="" fill="#FAF9FB" transform="translate(0,0)"/>
<path d="" fill="#FBFCFB" transform="translate(0,0)"/>
<path d="" fill="#F9F9F9" transform="translate(0,0)"/>
<path d="" fill="#F9F9FA" transform="translate(0,0)"/>
<path d="" fill="#FBFAFA" transform="translate(0,0)"/>
<path d="" fill="#FBFCFE" transform="translate(0,0)"/>
<path d="" fill="#F3F4F5" transform="translate(0,0)"/>
<path d="" fill="#FCFDFD" transform="translate(0,0)"/>
<path d="" fill="#F5F7F5" transform="translate(0,0)"/>
<path d="" fill="#656566" transform="translate(0,0)"/>
<path d="" fill="#F9F9F7" transform="translate(0,0)"/>
<path d="" fill="#F9F8F8" transform="translate(0,0)"/>
<path d="" fill="#F8FBF9" transform="translate(0,0)"/>
<path d="" fill="#F9F9F7" transform="translate(0,0)"/>
<path d="" fill="#F8F9F9" transform="translate(0,0)"/>
<path d="" fill="#FCFBFA" transform="translate(0,0)"/>
<path d="" fill="#EEEEEC" transform="translate(0,0)"/>
<path d="" fill="#FAFAF9" transform="translate(0,0)"/>
<path d="" fill="#FAFAF9" transform="translate(0,0)"/>
<path d="" fill="#FAF9F9" transform="translate(0,0)"/>
<path d="" fill="#F9F7F7" transform="translate(0,0)"/>
<path d="" fill="#F3F3F2" transform="translate(0,0)"/>
<path d="" fill="#FBFBFA" transform="translate(0,0)"/>
<path d="" fill="#FEFAFC" transform="translate(0,0)"/>
<path d="" fill="#FBFAF9" transform="translate(0,0)"/>
<path d="" fill="#FBF9FA" transform="translate(0,0)"/>
<path d="" fill="#F4F5F1" transform="translate(0,0)"/>
<path d="" fill="#FBFCF9" transform="translate(0,0)"/>
<path d="" fill="#F9F9F8" transform="translate(0,0)"/>
<path d="" fill="#FDFAFB" transform="translate(0,0)"/>
<path d="" fill="#FDFCFC" transform="translate(0,0)"/>
<path d="" fill="#F0F2EE" transform="translate(0,0)"/>
<path d="" fill="#EBEDED" transform="translate(0,0)"/>
<path d="" fill="#F2F0F1" transform="translate(0,0)"/>
<path d="" fill="#F0F1F0" transform="translate(0,0)"/>
<path d="" fill="#F4F5F4" transform="translate(0,0)"/>
<path d="" fill="#FBFBFA" transform="translate(0,0)"/>
<path d="" fill="#FBFAFB" transform="translate(0,0)"/>
<path d="" fill="#FBF8F8" transform="translate(0,0)"/>
<path d="" fill="#F9FAF8" transform="translate(0,0)"/>
<path d="" fill="#F2F2F2" transform="translate(0,0)"/>
<path d="" fill="#FBFBFB" transform="translate(0,0)"/>
<path d="" fill="#FBFBF9" transform="translate(0,0)"/>
<path d="" fill="#FBFAFB" transform="translate(0,0)"/>
<path d="" fill="#FDFCFC" transform="translate(0,0)"/>
<path d="" fill="#FBFBF9" transform="translate(0,0)"/>
<path d="" fill="#FCFAFA" transform="translate(0,0)"/>
<path d="" fill="#E9EAEB" transform="translate(0,0)"/>
<path d="" fill="#FBFAFB" transform="translate(0,0)"/>
<path d="" fill="#FBFBFA" transform="translate(0,0)"/>
<path d="" fill="#EDF0ED" transform="translate(0,0)"/>
<path d="" fill="#F4F1F1" transform="translate(0,0)"/>
<path d="" fill="#FCFAFB" transform="translate(0,0)"/>
<path d="" fill="#FDFBFB" transform="translate(0,0)"/>
<path d="" fill="#FCFBFA" transform="translate(0,0)"/>
<path d="" fill="#FAFAFB" transform="translate(0,0)"/>
<path d="" fill="#FBFBFB" transform="translate(0,0)"/>
<path d="" fill="#F2F1F0" transform="translate(0,0)"/>
<path d="" fill="#FBFAF8" transform="translate(0,0)"/>
<path d="" fill="#F1F0F1" transform="translate(0,0)"/>
<path d="" fill="#F1F2F2" transform="translate(0,0)"/>
<path d="" fill="#FCFBFA" transform="translate(0,0)"/>
<path d="" fill="#EFEFEE" transform="translate(0,0)"/>
<path d="" fill="#FCFCFA" transform="translate(0,0)"/>
<path d="" fill="#FBF9F9" transform="translate(0,0)"/>
<path d="" fill="#EFEEEE" transform="translate(0,0)"/>
<path d="" fill="#F4F5F8" transform="translate(0,0)"/>
<path d="" fill="#FEFEFC" transform="translate(0,0)"/>
<path d="" fill="#F0F0F1" transform="translate(0,0)"/>
<path d="" fill="#F9F8F8" transform="translate(0,0)"/>
<path d="" fill="#ECEDEE" transform="translate(0,0)"/>
<path d="" fill="#F5F5F6" transform="translate(0,0)"/>
<path d="" fill="#FBFCFA" transform="translate(0,0)"/>
<path d="" fill="#F4F3F3" transform="translate(0,0)"/>
<path d="" fill="#FAFBFA" transform="translate(0,0)"/>
<path d="" fill="#F3F3F2" transform="translate(0,0)"/>
<path d="" fill="#F6F4F3" transform="translate(0,0)"/>
<path d="" fill="#F4F3F4" transform="translate(0,0)"/>
<path d="" fill="#636564" transform="translate(0,0)"/>
<path d="" fill="#6F7071" transform="translate(0,0)"/>
<path d="" fill="#F7F4F4" transform="translate(0,0)"/>
<path d="" fill="#F4F3F2" transform="translate(0,0)"/>
<path d="" fill="#F6F5F5" transform="translate(0,0)"/>
<path d="" fill="#F0F1F1" transform="translate(0,0)"/>
<path d="" fill="#F5F7F8" transform="translate(0,0)"/>
<path d="" fill="#F4F3F3" transform="translate(0,0)"/>
<path d="" fill="#F6F4F6" transform="translate(0,0)"/>
<path d="" fill="#F6F5F5" transform="translate(0,0)"/>
<path d="" fill="#F4F4F5" transform="translate(0,0)"/>
<path d="" fill="#F0F2F1" transform="translate(0,0)"/>
<path d="" fill="#F2F3F3" transform="translate(0,0)"/>
<path d="" fill="#F5F5F3" transform="translate(0,0)"/>
<path d="" fill="#F5F5F5" transform="translate(0,0)"/>
<path d="" fill="#F6F5F4" transform="translate(0,0)"/>
<path d="" fill="#656664" transform="translate(0,0)"/>
<path d="" fill="#F7F6F4" transform="translate(0,0)"/>
<path d="" fill="#F4F4F3" transform="translate(0,0)"/>
<path d="" fill="#F4F5F4" transform="translate(0,0)"/>
<path d="" fill="#F3F2F2" transform="translate(0,0)"/>
<path d="" fill="#F7F8FA" transform="translate(0,0)"/>
<path d="" fill="#EDEDEC" transform="translate(0,0)"/>
<path d="" fill="#F8F9F9" transform="translate(0,0)"/>
<path d="" fill="#F2F2F1" transform="translate(0,0)"/>
<path d="" fill="#F3F3F2" transform="translate(0,0)"/>
<path d="" fill="#F1F2F2" transform="translate(0,0)"/>
<path d="" fill="#F9F8F8" transform="translate(0,0)"/>
<path d="" fill="#F1F0F2" transform="translate(0,0)"/>
<path d="" fill="#F1F2F4" transform="translate(0,0)"/>
<path d="" fill="#646663" transform="translate(0,0)"/>
<path d="" fill="#F0F0EF" transform="translate(0,0)"/>
<path d="" fill="#F6F7F6" transform="translate(0,0)"/>
<path d="" fill="#F6F5F4" transform="translate(0,0)"/>
<path d="" fill="#F1F0F1" transform="translate(0,0)"/>
<path d="" fill="#F6F8F9" transform="translate(0,0)"/>
<path d="" fill="#F6F6F4" transform="translate(0,0)"/>
<path d="" fill="#F0F0EF" transform="translate(0,0)"/>
<path d="" fill="#EFF0EF" transform="translate(0,0)"/>
<path d="" fill="#F2F3F3" transform="translate(0,0)"/>
<path d="" fill="#F7F7F6" transform="translate(0,0)"/>
<path d="" fill="#F7F6F7" transform="translate(0,0)"/>
<path d="" fill="#F6F5F7" transform="translate(0,0)"/>
<path d="" fill="#F5F5F4" transform="translate(0,0)"/>
<path d="" fill="#F6F7F6" transform="translate(0,0)"/>
<path d="" fill="#F5F6F5" transform="translate(0,0)"/>
<path d="" fill="#F4F4F2" transform="translate(0,0)"/>
<path d="" fill="#F6F7F4" transform="translate(0,0)"/>
<path d="" fill="#F5F5F3" transform="translate(0,0)"/>
<path d="" fill="#F5F4F2" transform="translate(0,0)"/>
<path d="" fill="#F4F4F2" transform="translate(0,0)"/>
<path d="" fill="#F9F7F6" transform="translate(0,0)"/>
<path d="" fill="#EFEFF0" transform="translate(0,0)"/>
<path d="" fill="#F1F1F1" transform="translate(0,0)"/>
<path d="" fill="#EEEFF0" transform="translate(0,0)"/>
<path d="" fill="#F3F2F2" transform="translate(0,0)"/>
<path d="" fill="#F4F6F4" transform="translate(0,0)"/>
<path d="" fill="#F4F5F4" transform="translate(0,0)"/>
<path d="" fill="#F5F7F8" transform="translate(0,0)"/>
<path d="" fill="#F4F4F4" transform="translate(0,0)"/>
<path d="" fill="#F2F3F1" transform="translate(0,0)"/>
<path d="" fill="#F2F2F2" transform="translate(0,0)"/>
<path d="" fill="#FAFAFA" transform="translate(0,0)"/>
<path d="" fill="#F7F7F8" transform="translate(0,0)"/>
<path d="" fill="#EEEFEE" transform="translate(0,0)"/>
<path d="" fill="#F9F7F5" transform="translate(0,0)"/>
<path d="" fill="#666765" transform="translate(0,0)"/>
<path d="" fill="#F6F5F5" transform="translate(0,0)"/>
<path d="" fill="#F6F5F4" transform="translate(0,0)"/>
<path d="" fill="#F7F6F8" transform="translate(0,0)"/>
<path d="" fill="#F5F4F4" transform="translate(0,0)"/>
<path d="" fill="#F7F6F5" transform="translate(0,0)"/>
<path d="" fill="#F2F1F1" transform="translate(0,0)"/>
<path d="" fill="#F5F4F5" transform="translate(0,0)"/>
<path d="" fill="#F5F5F6" transform="translate(0,0)"/>
<path d="" fill="#F2F2F2" transform="translate(0,0)"/>
<path d="" fill="#F5F5F5" transform="translate(0,0)"/>
<path d="" fill="#F2F2F1" transform="translate(0,0)"/>
<path d="" fill="#F1F1EF" transform="translate(0,0)"/>
<path d="" fill="#F1F1F2" transform="translate(0,0)"/>
<path d="" fill="#F0F1F2" transform="translate(0,0)"/>
<path d="" fill="#ECEDEB" transform="translate(0,0)"/>
<path d="" fill="#636464" transform="translate(0,0)"/>
<path d="" fill="#F2F0F0" transform="translate(0,0)"/>
<path d="" fill="#F0F0EF" transform="translate(0,0)"/>
<path d="" fill="#EDEDEC" transform="translate(0,0)"/>
<path d="" fill="#EFF1F0" transform="translate(0,0)"/>
<path d="" fill="#626364" transform="translate(0,0)"/>
<path d="" fill="#EFEDEE" transform="translate(0,0)"/>
<path d="" fill="#EEEDEC" transform="translate(0,0)"/>
<path d="" fill="#E8E9E7" transform="translate(0,0)"/>
<path d="" fill="#E8E9E7" transform="translate(0,0)"/>
<path d="" fill="#E8E8E8" transform="translate(0,0)"/>
<path d="" fill="#E9E7E8" transform="translate(0,0)"/>
<path d="" fill="#636262" transform="translate(0,0)"/>
<path d="" fill="#DDDBDC" transform="translate(0,0)"/>
<path d="" fill="#DADADA" transform="translate(0,0)"/>
<path d="" fill="#626262" transform="translate(0,0)"/>
<path d="" fill="#626263" transform="translate(0,0)"/>
<path d="" fill="#646565" transform="translate(0,0)"/>
<path d="" fill="#626463" transform="translate(0,0)"/>
<path d="" fill="#616260" transform="translate(0,0)"/>
<path d="" fill="#626262" transform="translate(0,0)"/>
<path d="" fill="#646363" transform="translate(0,0)"/>
<path d="" fill="#6D6B6D" transform="translate(0,0)"/>
<path d="" fill="#61605F" transform="translate(0,0)"/>
<path d="" fill="#646663" transform="translate(0,0)"/>
<path d="" fill="#717171" transform="translate(0,0)"/>
<path d="" fill="#767777" transform="translate(0,0)"/>
<path d="" fill="#616162" transform="translate(0,0)"/>
<path d="" fill="#646564" transform="translate(0,0)"/>
<path d="" fill="#626263" transform="translate(0,0)"/>
<path d="" fill="#616163" transform="translate(0,0)"/>
<path d="" fill="#5F6161" transform="translate(0,0)"/>
<path d="" fill="#666666" transform="translate(0,0)"/>
<path d="" fill="#626362" transform="translate(0,0)"/>
<path d="" fill="#696969" transform="translate(0,0)"/>
<path d="" fill="#636262" transform="translate(0,0)"/>
<path d="" fill="#656664" transform="translate(0,0)"/>
<path d="" fill="#6A6A6A" transform="translate(0,0)"/>
<path d="" fill="#6C6D6B" transform="translate(0,0)"/>
<path d="" fill="#646464" transform="translate(0,0)"/>
<path d="" fill="#686969" transform="translate(0,0)"/>
<path d="" fill="#6A6A69" transform="translate(0,0)"/>
</svg>
